NotoSansThai-Regular.ufo
<glyph name="uni02D7" format="2">
  <advance width="218"/>
  <unicode hex="02D7"/>
  <outline>
    <contour>
      <point x="206" y="250" type="line"/>
      <point x="206" y="302" type="line"/>
      <point x="12" y="302" type="line"/>
      <point x="12" y="250" type="line"/>
    </contour>
  </outline>
</glyph>
<glyph name="koKai-thai" format="2">
  <advance width="600"/>
  <unicode hex="0E01"/>
  <note>
uni0E01
</note>
  <anchor x="520" y="0" name="bottom"/>
  <anchor x="509" y="536" name="top"/>
  <outline>
    <contour>
      <point x="76" y="0" type="line"/>
      <point x="165" y="0" type="line"/>
      <point x="165" y="190" type="line" smooth="yes"/>
      <point x="165" y="261"/>
      <point x="207" y="292"/>
      <point x="257" y="292" type="curve"/>
      <point x="265" y="340" type="line"/>
      <point x="157" y="394" type="line"/>
      <point x="157" y="446"/>
      <point x="208" y="484"/>
      <point x="290" y="484" type="curve" smooth="yes"/>
      <point x="368" y="484"/>
      <point x="430" y="449"/>
      <point x="430" y="360" type="curve" smooth="yes"/>
      <point x="430" y="0" type="line"/>
      <point x="519" y="0" type="line"/>
      <point x="519" y="369" type="line" smooth="yes"/>
      <point x="519" y="502"/>
      <point x="413" y="558"/>
      <point x="291" y="558" type="curve" smooth="yes"/>
      <point x="150" y="558"/>
      <point x="66" y="481"/>
      <point x="66" y="399" type="curve" smooth="yes"/>
      <point x="66" y="366" type="line"/>
      <point x="176" y="324" type="line"/>
      <point x="175" y="321" type="line"/>
      <point x="117" y="306"/>
      <point x="76" y="274"/>
      <point x="76" y="190" type="curve" smooth="yes"/>
    </contour>
  </outline>
</glyph>
<glyph name="khoKhai-thai" format="2">
  <advance width="547"/>
  <unicode hex="0E02"/>
  <note>
uni0E02
</note>
  <anchor x="445" y="0" name="bottom"/>
  <anchor x="465" y="536" name="top"/>
  <outline>
    <contour>
      <point x="274" y="-10" type="curve" smooth="yes"/>
      <point x="400" y="-10"/>
      <point x="466" y="51"/>
      <point x="466" y="154" type="curve" smooth="yes"/>
      <point x="466" y="548" type="line"/>
      <point x="377" y="548" type="line"/>
      <point x="377" y="159" type="line" smooth="yes"/>
      <point x="377" y="94"/>
      <point x="341" y="63"/>
      <point x="274" y="63" type="curve" smooth="yes"/>
      <point x="217" y="63"/>
      <point x="166" y="85"/>
      <point x="166" y="178" type="curve" smooth="yes"/>
      <point x="166" y="237" type="line" smooth="yes"/>
      <point x="166" y="286"/>
      <point x="182" y="312"/>
      <point x="205" y="345" type="curve" smooth="yes"/>
      <point x="227" y="375"/>
      <point x="247" y="404"/>
      <point x="247" y="453" type="curve" smooth="yes"/>
      <point x="247" y="512"/>
      <point x="219" y="554"/>
      <point x="145" y="554" type="curve" smooth="yes"/>
      <point x="118" y="554"/>
      <point x="78" y="548"/>
      <point x="54" y="532" type="curve"/>
      <point x="74" y="468" type="line"/>
      <point x="91" y="476"/>
      <point x="110" y="482"/>
      <point x="126" y="482" type="curve" smooth="yes"/>
      <point x="147" y="482"/>
      <point x="163" y="471"/>
      <point x="163" y="443" type="curve" smooth="yes"/>
      <point x="163" y="411"/>
      <point x="144" y="392"/>
      <point x="121" y="362" type="curve" smooth="yes"/>
      <point x="100" y="334"/>
      <point x="77" y="299"/>
      <point x="77" y="233" type="curve" smooth="yes"/>
      <point x="77" y="172" type="line" smooth="yes"/>
      <point x="77" y="51"/>
      <point x="149" y="-10"/>
    </contour>
  </outline>
</glyph>
<glyph name="khoKhuat-thai" format="2">
  <advance width="549"/>
  <unicode hex="0E03"/>
  <anchor x="448" y="0" name="bottom"/>
  <anchor x="468" y="536" name="top"/>
  <outline>
    <contour>
      <point x="272" y="-10" type="curve" smooth="yes"/>
      <point x="399" y="-10"/>
      <point x="468" y="51"/>
      <point x="468" y="154" type="curve" smooth="yes"/>
      <point x="468" y="548" type="line"/>
      <point x="380" y="548" type="line"/>
      <point x="380" y="159" type="line" smooth="yes"/>
      <point x="380" y="94"/>
      <point x="341" y="63"/>
      <point x="272" y="63" type="curve" smooth="yes"/>
      <point x="218" y="63"/>
      <point x="167" y="84"/>
      <point x="167" y="178" type="curve" smooth="yes"/>
      <point x="167" y="234" type="line" smooth="yes"/>
      <point x="167" y="304"/>
      <point x="193" y="323"/>
      <point x="224" y="362" type="curve" smooth="yes"/>
      <point x="266" y="416"/>
      <point x="267" y="444"/>
      <point x="267" y="503" type="curve" smooth="yes"/>
      <point x="267" y="548" type="line"/>
      <point x="218" y="548" type="line"/>
      <point x="199" y="507" type="line"/>
      <point x="186" y="496"/>
      <point x="168" y="491"/>
      <point x="154" y="491" type="curve" smooth="yes"/>
      <point x="131" y="491"/>
      <point x="122" y="508"/>
      <point x="122" y="548" type="curve"/>
      <point x="44" y="548" type="line"/>
      <point x="44" y="527" type="line" smooth="yes"/>
      <point x="44" y="467"/>
      <point x="78" y="433"/>
      <point x="126" y="433" type="curve" smooth="yes"/>
      <point x="150" y="433"/>
      <point x="169" y="441"/>
      <point x="184" y="452" type="curve"/>
      <point x="187" y="450" type="line"/>
      <point x="185" y="430"/>
      <point x="168" y="412"/>
      <point x="147" y="389" type="curve" smooth="yes"/>
      <point x="113" y="350"/>
      <point x="78" y="314"/>
      <point x="78" y="236" type="curve" smooth="yes"/>
      <point x="78" y="173" type="line" smooth="yes"/>
      <point x="78" y="51"/>
      <point x="146" y="-10"/>
    </contour>
  </outline>
</glyph>
<glyph name="khoKhwai-thai" format="2">
  <advance width="614"/>
  <unicode hex="0E04"/>
  <note>
uni0E04
</note>
  <anchor x="533" y="0" name="bottom"/>
  <anchor x="522" y="536" name="top"/>
  <outline>
    <contour>
      <point x="81" y="0" type="line"/>
      <point x="170" y="0" type="line"/>
      <point x="170" y="106" type="line" smooth="yes"/>
      <point x="170" y="173"/>
      <point x="195" y="229"/>
      <point x="317" y="229" type="curve" smooth="yes"/>
      <point x="350" y="229" type="line"/>
      <point x="350" y="302" type="line"/>
      <point x="317" y="302" type="line" smooth="yes"/>
      <point x="240" y="302"/>
      <point x="202" y="290"/>
      <point x="173" y="238" type="curve"/>
      <point x="170" y="239" type="line"/>
      <point x="170" y="350" type="line" smooth="yes"/>
      <point x="170" y="439"/>
      <point x="216" y="484"/>
      <point x="306" y="484" type="curve" smooth="yes"/>
      <point x="397" y="484"/>
      <point x="444" y="439"/>
      <point x="444" y="350" type="curve" smooth="yes"/>
      <point x="444" y="0" type="line"/>
      <point x="533" y="0" type="line"/>
      <point x="533" y="350" type="line" smooth="yes"/>
      <point x="533" y="484"/>
      <point x="465" y="558"/>
      <point x="307" y="558" type="curve" smooth="yes"/>
      <point x="149" y="558"/>
      <point x="81" y="484"/>
      <point x="81" y="350" type="curve" smooth="yes"/>
    </contour>
  </outline>
</glyph>
<glyph name="khoKhon-thai" format="2">
  <advance width="621"/>
  <unicode hex="0E05"/>
  <anchor x="539" y="0" name="bottom"/>
  <anchor x="528" y="536" name="top"/>
  <outline>
    <contour>
      <point x="81" y="0" type="line"/>
      <point x="170" y="0" type="line"/>
      <point x="170" y="106" type="line" smooth="yes"/>
      <point x="170" y="173"/>
      <point x="195" y="229"/>
      <point x="318" y="229" type="curve" smooth="yes"/>
      <point x="351" y="229" type="line"/>
      <point x="351" y="302" type="line"/>
      <point x="318" y="302" type="line" smooth="yes"/>
      <point x="240" y="302"/>
      <point x="201" y="290"/>
      <point x="171" y="238" type="curve"/>
      <point x="168" y="239" type="line"/>
      <point x="168" y="417" type="line" smooth="yes"/>
      <point x="168" y="468"/>
      <point x="192" y="484"/>
      <point x="223" y="484" type="curve" smooth="yes"/>
      <point x="259" y="484"/>
      <point x="277" y="466"/>
      <point x="281" y="424" type="curve"/>
      <point x="337" y="424" type="line"/>
      <point x="341" y="466"/>
      <point x="358" y="484"/>
      <point x="393" y="484" type="curve" smooth="yes"/>
      <point x="426" y="484"/>
      <point x="451" y="468"/>
      <point x="451" y="417" type="curve" smooth="yes"/>
      <point x="451" y="0" type="line"/>
      <point x="540" y="0" type="line"/>
      <point x="540" y="419" type="line" smooth="yes"/>
      <point x="540" y="513"/>
      <point x="490" y="558"/>
      <point x="407" y="558" type="curve" smooth="yes"/>
      <point x="361" y="558"/>
      <point x="325" y="544"/>
      <point x="312" y="506" type="curve"/>
      <point x="308" y="506" type="line"/>
      <point x="296" y="544"/>
      <point x="260" y="558"/>
      <point x="213" y="558" type="curve" smooth="yes"/>
      <point x="131" y="558"/>
      <point x="81" y="513"/>
      <point x="81" y="419" type="curve" smooth="yes"/>
    </contour>
  </outline>
</glyph>
<glyph name="khoRakhang-thai" format="2">
  <advance width="598"/>
  <unicode hex="0E06"/>
  <anchor x="498" y="0" name="bottom"/>
  <anchor x="517" y="536" name="top"/>
  <outline>
    <contour>
      <point x="333" y="-10" type="curve" smooth="yes"/>
      <point x="447" y="-10"/>
      <point x="517" y="49"/>
      <point x="517" y="181" type="curve" smooth="yes"/>
      <point x="517" y="548" type="line"/>
      <point x="428" y="548" type="line"/>
      <point x="428" y="187" type="line" smooth="yes"/>
      <point x="428" y="107"/>
      <point x="389" y="65"/>
      <point x="311" y="65" type="curve" smooth="yes"/>
      <point x="218" y="65"/>
      <point x="162" y="125"/>
      <point x="162" y="222" type="curve" smooth="yes"/>
      <point x="162" y="231" type="line" smooth="yes"/>
      <point x="162" y="300"/>
      <point x="188" y="320"/>
      <point x="220" y="362" type="curve" smooth="yes"/>
      <point x="264" y="419"/>
      <point x="268" y="445"/>
      <point x="268" y="503" type="curve" smooth="yes"/>
      <point x="268" y="548" type="line"/>
      <point x="218" y="548" type="line"/>
      <point x="199" y="507" type="line"/>
      <point x="186" y="496"/>
      <point x="168" y="491"/>
      <point x="154" y="491" type="curve" smooth="yes"/>
      <point x="131" y="491"/>
      <point x="122" y="508"/>
      <point x="122" y="548" type="curve"/>
      <point x="44" y="548" type="line"/>
      <point x="44" y="527" type="line" smooth="yes"/>
      <point x="44" y="467"/>
      <point x="78" y="433"/>
      <point x="126" y="433" type="curve" smooth="yes"/>
      <point x="150" y="433"/>
      <point x="169" y="441"/>
      <point x="184" y="452" type="curve"/>
      <point x="187" y="450" type="line"/>
      <point x="185" y="432"/>
      <point x="173" y="419"/>
      <point x="144" y="389" type="curve" smooth="yes"/>
      <point x="105" y="348"/>
      <point x="74" y="310"/>
      <point x="74" y="232" type="curve" smooth="yes"/>
      <point x="74" y="0" type="line"/>
      <point x="147" y="0" type="line"/>
      <point x="152" y="87" type="line"/>
      <point x="156" y="87" type="line"/>
      <point x="179" y="26"/>
      <point x="242" y="-10"/>
    </contour>
  </outline>
</glyph>
<glyph name="ngoNgu-thai" format="2">
  <advance width="537"/>
  <unicode hex="0E07"/>
  <note>
uni0E07
</note>
  <anchor x="395" y="0" name="bottom"/>
  <anchor x="439" y="536" name="top"/>
  <outline>
    <contour>
      <point x="171" y="0" type="line"/>
      <point x="221" y="0" type="line" smooth="yes"/>
      <point x="307" y="0"/>
      <point x="360" y="24"/>
      <point x="399" y="63" type="curve" smooth="yes"/>
      <point x="447" y="111"/>
      <point x="483" y="194"/>
      <point x="483" y="298" type="curve" smooth="yes"/>
      <point x="483" y="380"/>
      <point x="461" y="450"/>
      <point x="415" y="496" type="curve" smooth="yes"/>
      <point x="377" y="533"/>
      <point x="324" y="553"/>
      <point x="258" y="553" type="curve" smooth="yes"/>
      <point x="238" y="553"/>
      <point x="213" y="551"/>
      <point x="185" y="543" type="curve"/>
      <point x="207" y="472" type="line"/>
      <point x="218" y="476"/>
      <point x="235" y="479"/>
      <point x="253" y="479" type="curve" smooth="yes"/>
      <point x="341" y="479"/>
      <point x="394" y="412"/>
      <point x="394" y="301" type="curve" smooth="yes"/>
      <point x="394" y="235"/>
      <point x="376" y="162"/>
      <point x="336" y="118" type="curve" smooth="yes"/>
      <point x="314" y="94"/>
      <point x="282" y="77"/>
      <point x="250" y="77" type="curve" smooth="yes"/>
      <point x="238" y="77" type="line"/>
      <point x="90" y="548" type="line"/>
      <point x="0" y="548" type="line"/>
    </contour>
  </outline>
</glyph>
<glyph name="choChing-thai" format="2">
  <advance width="604"/>
  <unicode hex="0E09"/>
  <anchor x="523" y="0" name="bottom"/>
  <anchor x="513" y="536" name="top"/>
  <outline>
    <contour>
      <point x="265" y="-10" type="curve" smooth="yes"/>
      <point x="355" y="-10"/>
      <point x="418" y="27"/>
      <point x="441" y="81" type="curve"/>
      <point x="445" y="81" type="line"/>
      <point x="450" y="0" type="line"/>
      <point x="523" y="0" type="line"/>
      <point x="523" y="323" type="line" smooth="yes"/>
      <point x="523" y="476"/>
      <point x="453" y="558"/>
      <point x="283" y="558" type="curve" smooth="yes"/>
      <point x="201" y="558"/>
      <point x="128" y="539"/>
      <point x="90" y="516" type="curve"/>
      <point x="90" y="433" type="line"/>
      <point x="147" y="469"/>
      <point x="208" y="484"/>
      <point x="272" y="484" type="curve" smooth="yes"/>
      <point x="373" y="484"/>
      <point x="434" y="448"/>
      <point x="434" y="317" type="curve" smooth="yes"/>
      <point x="434" y="227" type="line" smooth="yes"/>
      <point x="434" y="129"/>
      <point x="379" y="65"/>
      <point x="285" y="65" type="curve" smooth="yes"/>
      <point x="208" y="65"/>
      <point x="169" y="107"/>
      <point x="169" y="181" type="curve" smooth="yes"/>
      <point x="169" y="313" type="line"/>
      <point x="81" y="313" type="line"/>
      <point x="81" y="174" type="line" smooth="yes"/>
      <point x="81" y="47"/>
      <point x="152" y="-10"/>
    </contour>
  </outline>
</glyph>
<glyph name="choChang-thai" format="2">
  <advance width="550"/>
  <unicode hex="0E0A"/>
  <anchor x="445" y="0" name="bottom"/>
  <anchor x="477" y="534" name="top"/>
  <outline>
    <contour>
      <point x="275" y="-10" type="curve" smooth="yes"/>
      <point x="401" y="-10"/>
      <point x="466" y="51"/>
      <point x="466" y="154" type="curve" smooth="yes"/>
      <point x="466" y="300" type="line" smooth="yes"/>
      <point x="466" y="338"/>
      <point x="460" y="385"/>
      <point x="405" y="400" type="curve"/>
      <point x="405" y="404" type="line"/>
      <point x="466" y="426"/>
      <point x="477" y="477"/>
      <point x="477" y="548" type="curve"/>
      <point x="388" y="548" type="line"/>
      <point x="388" y="501"/>
      <point x="388" y="432"/>
      <point x="306" y="432" type="curve" smooth="yes"/>
      <point x="301" y="432" type="line"/>
      <point x="301" y="375" type="line"/>
      <point x="305" y="375" type="line" smooth="yes"/>
      <point x="356" y="375"/>
      <point x="377" y="348"/>
      <point x="377" y="299" type="curve" smooth="yes"/>
      <point x="377" y="159" type="line" smooth="yes"/>
      <point x="377" y="94"/>
      <point x="342" y="63"/>
      <point x="275" y="63" type="curve" smooth="yes"/>
      <point x="217" y="63"/>
      <point x="166" y="85"/>
      <point x="166" y="178" type="curve" smooth="yes"/>
      <point x="166" y="237" type="line" smooth="yes"/>
      <point x="166" y="286"/>
      <point x="182" y="312"/>
      <point x="205" y="345" type="curve" smooth="yes"/>
      <point x="227" y="375"/>
      <point x="247" y="404"/>
      <point x="247" y="453" type="curve" smooth="yes"/>
      <point x="247" y="512"/>
      <point x="219" y="554"/>
      <point x="145" y="554" type="curve" smooth="yes"/>
      <point x="118" y="554"/>
      <point x="78" y="548"/>
      <point x="54" y="532" type="curve"/>
      <point x="74" y="468" type="line"/>
      <point x="91" y="476"/>
      <point x="110" y="482"/>
      <point x="126" y="482" type="curve" smooth="yes"/>
      <point x="147" y="482"/>
      <point x="163" y="471"/>
      <point x="163" y="443" type="curve" smooth="yes"/>
      <point x="163" y="411"/>
      <point x="144" y="392"/>
      <point x="121" y="362" type="curve" smooth="yes"/>
      <point x="100" y="334"/>
      <point x="77" y="299"/>
      <point x="77" y="233" type="curve" smooth="yes"/>
      <point x="77" y="172" type="line" smooth="yes"/>
      <point x="77" y="51"/>
      <point x="148" y="-10"/>
    </contour>
  </outline>
</glyph>
<glyph name="soSo-thai" format="2">
  <advance width="556"/>
  <unicode hex="0E0B"/>
  <note>
uni0E0B
</note>
  <anchor x="452" y="0" name="bottom"/>
  <anchor x="493" y="536" name="top"/>
  <outline>
    <contour>
      <point x="276" y="-10" type="curve" smooth="yes"/>
      <point x="403" y="-10"/>
      <point x="473" y="51"/>
      <point x="473" y="154" type="curve" smooth="yes"/>
      <point x="473" y="290" type="line" smooth="yes"/>
      <point x="473" y="347"/>
      <point x="461" y="387"/>
      <point x="411" y="402" type="curve"/>
      <point x="411" y="406" type="line"/>
      <point x="470" y="428"/>
      <point x="483" y="477"/>
      <point x="483" y="548" type="curve"/>
      <point x="394" y="548" type="line"/>
      <point x="394" y="501"/>
      <point x="393" y="432"/>
      <point x="312" y="432" type="curve" smooth="yes"/>
      <point x="307" y="432" type="line"/>
      <point x="307" y="375" type="line"/>
      <point x="311" y="375" type="line" smooth="yes"/>
      <point x="361" y="375"/>
      <point x="384" y="348"/>
      <point x="384" y="299" type="curve" smooth="yes"/>
      <point x="384" y="159" type="line" smooth="yes"/>
      <point x="384" y="94"/>
      <point x="345" y="63"/>
      <point x="276" y="63" type="curve" smooth="yes"/>
      <point x="221" y="63"/>
      <point x="171" y="83"/>
      <point x="171" y="178" type="curve" smooth="yes"/>
      <point x="171" y="243" type="line" smooth="yes"/>
      <point x="171" y="304"/>
      <point x="193" y="323"/>
      <point x="224" y="362" type="curve" smooth="yes"/>
      <point x="266" y="416"/>
      <point x="267" y="444"/>
      <point x="267" y="503" type="curve" smooth="yes"/>
      <point x="267" y="548" type="line"/>
      <point x="218" y="548" type="line"/>
      <point x="199" y="507" type="line"/>
      <point x="186" y="496"/>
      <point x="168" y="491"/>
      <point x="154" y="491" type="curve" smooth="yes"/>
      <point x="131" y="491"/>
      <point x="122" y="508"/>
      <point x="122" y="548" type="curve"/>
      <point x="44" y="548" type="line"/>
      <point x="44" y="527" type="line" smooth="yes"/>
      <point x="44" y="467"/>
      <point x="78" y="433"/>
      <point x="126" y="433" type="curve" smooth="yes"/>
      <point x="150" y="433"/>
      <point x="169" y="441"/>
      <point x="184" y="452" type="curve"/>
      <point x="187" y="450" type="line"/>
      <point x="185" y="430"/>
      <point x="167" y="412"/>
      <point x="147" y="389" type="curve" smooth="yes"/>
      <point x="113" y="350"/>
      <point x="82" y="314"/>
      <point x="82" y="236" type="curve" smooth="yes"/>
      <point x="82" y="173" type="line" smooth="yes"/>
      <point x="82" y="51"/>
      <point x="150" y="-10"/>
    </contour>
  </outline>
</glyph>
<glyph name="choChoe-thai" format="2">
  <advance width="906"/>
  <unicode hex="0E0C"/>
  <anchor x="804" y="0" name="bottom"/>
  <anchor x="824" y="536" name="top"/>
  <outline>
    <contour>
      <point x="194" y="-10" type="curve" smooth="yes"/>
      <point x="216" y="-10"/>
      <point x="240" y="-7"/>
      <point x="265" y="5" type="curve"/>
      <point x="252" y="69" type="line"/>
      <point x="241" y="65"/>
      <point x="228" y="63"/>
      <point x="215" y="63" type="curve" smooth="yes"/>
      <point x="186" y="63"/>
      <point x="173" y="75"/>
      <point x="173" y="105" type="curve" smooth="yes"/>
      <point x="173" y="193" type="line" smooth="yes"/>
      <point x="173" y="264"/>
      <point x="213" y="292"/>
      <point x="263" y="292" type="curve"/>
      <point x="271" y="340" type="line"/>
      <point x="157" y="394" type="line"/>
      <point x="158" y="451"/>
      <point x="209" y="484"/>
      <point x="282" y="484" type="curve" smooth="yes"/>
      <point x="351" y="484"/>
      <point x="412" y="455"/>
      <point x="412" y="360" type="curve" smooth="yes"/>
      <point x="412" y="0" type="line"/>
      <point x="486" y="0" type="line"/>
      <point x="490" y="87" type="line"/>
      <point x="494" y="87" type="line"/>
      <point x="518" y="26"/>
      <point x="582" y="-10"/>
      <point x="654" y="-10" type="curve" smooth="yes"/>
      <point x="756" y="-10"/>
      <point x="825" y="41"/>
      <point x="825" y="173" type="curve" smooth="yes"/>
      <point x="825" y="548" type="line"/>
      <point x="736" y="548" type="line"/>
      <point x="736" y="179" type="line" smooth="yes"/>
      <point x="736" y="99"/>
      <point x="697" y="65"/>
      <point x="635" y="65" type="curve" smooth="yes"/>
      <point x="556" y="65"/>
      <point x="501" y="130"/>
      <point x="501" y="228" type="curve" smooth="yes"/>
      <point x="501" y="370" type="line" smooth="yes"/>
      <point x="501" y="506"/>
      <point x="395" y="558"/>
      <point x="283" y="558" type="curve" smooth="yes"/>
      <point x="150" y="558"/>
      <point x="66" y="485"/>
      <point x="66" y="399" type="curve" smooth="yes"/>
      <point x="66" y="366" type="line"/>
      <point x="181" y="324" type="line"/>
      <point x="180" y="321" type="line"/>
      <point x="123" y="306"/>
      <point x="84" y="275"/>
      <point x="84" y="192" type="curve" smooth="yes"/>
      <point x="84" y="95" type="line" smooth="yes"/>
      <point x="84" y="13"/>
      <point x="137" y="-10"/>
    </contour>
  </outline>
</glyph>
<glyph name="yoYing-thai" format="2">
  <advance width="909"/>
  <unicode hex="0E0D"/>
  <anchor x="768" y="-161" name="bottom"/>
  <anchor x="820" y="536" name="top"/>
  <outline>
    <contour>
      <point x="598" y="-174" type="curve" smooth="yes"/>
      <point x="742" y="-174"/>
      <point x="821" y="-100"/>
      <point x="821" y="50" type="curve" smooth="yes"/>
      <point x="821" y="548" type="line"/>
      <point x="732" y="548" type="line"/>
      <point x="732" y="238" type="line" smooth="yes"/>
      <point x="732" y="140"/>
      <point x="679" y="76"/>
      <point x="597" y="76" type="curve" smooth="yes"/>
      <point x="537" y="76"/>
      <point x="497" y="110"/>
      <point x="497" y="189" type="curve" smooth="yes"/>
      <point x="497" y="370" type="line" smooth="yes"/>
      <point x="497" y="508"/>
      <point x="391" y="558"/>
      <point x="281" y="558" type="curve" smooth="yes"/>
      <point x="150" y="558"/>
      <point x="66" y="487"/>
      <point x="66" y="399" type="curve" smooth="yes"/>
      <point x="66" y="366" type="line"/>
      <point x="181" y="324" type="line"/>
      <point x="180" y="321" type="line"/>
      <point x="123" y="306"/>
      <point x="84" y="275"/>
      <point x="84" y="192" type="curve" smooth="yes"/>
      <point x="84" y="95" type="line" smooth="yes"/>
      <point x="84" y="13"/>
      <point x="137" y="-10"/>
      <point x="194" y="-10" type="curve" smooth="yes"/>
      <point x="216" y="-10"/>
      <point x="240" y="-7"/>
      <point x="265" y="5" type="curve"/>
      <point x="252" y="69" type="line"/>
      <point x="241" y="65"/>
      <point x="228" y="63"/>
      <point x="214" y="63" type="curve" smooth="yes"/>
      <point x="186" y="63"/>
      <point x="173" y="75"/>
      <point x="173" y="105" type="curve" smooth="yes"/>
      <point x="173" y="193" type="line" smooth="yes"/>
      <point x="173" y="264"/>
      <point x="213" y="292"/>
      <point x="263" y="292" type="curve"/>
      <point x="271" y="340" type="line"/>
      <point x="157" y="394" type="line"/>
      <point x="158" y="453"/>
      <point x="209" y="484"/>
      <point x="280" y="484" type="curve" smooth="yes"/>
      <point x="346" y="484"/>
      <point x="408" y="457"/>
      <point x="408" y="361" type="curve" smooth="yes"/>
      <point x="408" y="182" type="line" smooth="yes"/>
      <point x="408" y="51"/>
      <point x="481" y="1"/>
      <point x="576" y="1" type="curve" smooth="yes"/>
      <point x="651" y="1"/>
      <point x="703" y="32"/>
      <point x="730" y="74" type="curve"/>
      <point x="734" y="74" type="line"/>
      <point x="734" y="48" type="line" smooth="yes"/>
      <point x="734" y="-66"/>
      <point x="676" y="-96"/>
      <point x="596" y="-96" type="curve" smooth="yes"/>
      <point x="542" y="-96"/>
      <point x="479" y="-82"/>
      <point x="437" y="-54" type="curve"/>
      <point x="437" y="-140" type="line"/>
      <point x="486" y="-163"/>
      <point x="543" y="-174"/>
    </contour>
  </outline>
</glyph>
<glyph name="doChada-thai" format="2">
  <advance width="603"/>
  <unicode hex="0E0E"/>
  <anchor x="522" y="-189" name="bottom"/>
  <anchor x="510" y="536" name="top"/>
  <outline>
    <contour>
      <point x="103" y="-201" type="line"/>
      <point x="194" y="-201" type="line"/>
      <point x="194" y="-191" type="line" smooth="yes"/>
      <point x="194" y="-160"/>
      <point x="220" y="-131"/>
      <point x="278" y="-131" type="curve" smooth="yes"/>
      <point x="345" y="-131"/>
      <point x="420" y="-166"/>
      <point x="452" y="-201" type="curve"/>
      <point x="522" y="-201" type="line"/>
      <point x="522" y="369" type="line" smooth="yes"/>
      <point x="522" y="502"/>
      <point x="416" y="558"/>
      <point x="293" y="558" type="curve" smooth="yes"/>
      <point x="150" y="558"/>
      <point x="67" y="481"/>
      <point x="67" y="399" type="curve" smooth="yes"/>
      <point x="67" y="366" type="line"/>
      <point x="182" y="324" type="line"/>
      <point x="181" y="321" type="line"/>
      <point x="124" y="307"/>
      <point x="92" y="276"/>
      <point x="92" y="194" type="curve" smooth="yes"/>
      <point x="92" y="101" type="line" smooth="yes"/>
      <point x="92" y="74"/>
      <point x="83" y="62"/>
      <point x="62" y="62" type="curve" smooth="yes"/>
      <point x="51" y="62"/>
      <point x="38" y="65"/>
      <point x="29" y="68" type="curve"/>
      <point x="19" y="5" type="line"/>
      <point x="42" y="-5"/>
      <point x="64" y="-9"/>
      <point x="88" y="-9" type="curve" smooth="yes"/>
      <point x="140" y="-9"/>
      <point x="181" y="13"/>
      <point x="181" y="94" type="curve" smooth="yes"/>
      <point x="181" y="191" type="line" smooth="yes"/>
      <point x="181" y="262"/>
      <point x="214" y="292"/>
      <point x="264" y="292" type="curve"/>
      <point x="272" y="340" type="line"/>
      <point x="158" y="394" type="line"/>
      <point x="158" y="446"/>
      <point x="209" y="484"/>
      <point x="292" y="484" type="curve" smooth="yes"/>
      <point x="370" y="484"/>
      <point x="433" y="449"/>
      <point x="433" y="360" type="curve" smooth="yes"/>
      <point x="433" y="-146" type="line"/>
      <point x="459" y="-136" type="line"/>
      <point x="427" y="-97"/>
      <point x="352" y="-57"/>
      <point x="261" y="-57" type="curve" smooth="yes"/>
      <point x="158" y="-57"/>
      <point x="103" y="-107"/>
      <point x="103" y="-184" type="curve" smooth="yes"/>
    </contour>
  </outline>
</glyph>
<glyph name="toPatak-thai" format="2">
  <advance width="603"/>
  <unicode hex="0E0F"/>
  <anchor x="522" y="-189" name="bottom"/>
  <anchor x="511" y="536" name="top"/>
  <outline>
    <contour>
      <point x="76" y="-201" type="line"/>
      <point x="160" y="-201" type="line"/>
      <point x="160" y="-192" type="line" smooth="yes"/>
      <point x="160" y="-167"/>
      <point x="173" y="-136"/>
      <point x="209" y="-136" type="curve" smooth="yes"/>
      <point x="245" y="-136"/>
      <point x="267" y="-165"/>
      <point x="284" y="-201" type="curve"/>
      <point x="307" y="-201" type="line"/>
      <point x="368" y="-145" type="line"/>
      <point x="442" y="-201" type="line"/>
      <point x="522" y="-201" type="line"/>
      <point x="522" y="369" type="line" smooth="yes"/>
      <point x="522" y="502"/>
      <point x="416" y="558"/>
      <point x="293" y="558" type="curve" smooth="yes"/>
      <point x="150" y="558"/>
      <point x="67" y="481"/>
      <point x="67" y="399" type="curve" smooth="yes"/>
      <point x="67" y="366" type="line"/>
      <point x="182" y="324" type="line"/>
      <point x="181" y="321" type="line"/>
      <point x="124" y="307"/>
      <point x="92" y="276"/>
      <point x="92" y="194" type="curve" smooth="yes"/>
      <point x="92" y="101" type="line" smooth="yes"/>
      <point x="92" y="74"/>
      <point x="83" y="62"/>
      <point x="62" y="62" type="curve" smooth="yes"/>
      <point x="51" y="62"/>
      <point x="38" y="65"/>
      <point x="29" y="68" type="curve"/>
      <point x="19" y="5" type="line"/>
      <point x="42" y="-5"/>
      <point x="64" y="-9"/>
      <point x="88" y="-9" type="curve" smooth="yes"/>
      <point x="140" y="-9"/>
      <point x="181" y="13"/>
      <point x="181" y="94" type="curve" smooth="yes"/>
      <point x="181" y="191" type="line" smooth="yes"/>
      <point x="181" y="262"/>
      <point x="214" y="292"/>
      <point x="264" y="292" type="curve"/>
      <point x="272" y="340" type="line"/>
      <point x="158" y="394" type="line"/>
      <point x="158" y="446"/>
      <point x="209" y="484"/>
      <point x="292" y="484" type="curve" smooth="yes"/>
      <point x="370" y="484"/>
      <point x="433" y="449"/>
      <point x="433" y="360" type="curve" smooth="yes"/>
      <point x="433" y="-145" type="line"/>
      <point x="459" y="-140" type="line"/>
      <point x="366" y="-71" type="line"/>
      <point x="302" y="-125" type="line"/>
      <point x="285" y="-92"/>
      <point x="254" y="-66"/>
      <point x="193" y="-66" type="curve" smooth="yes"/>
      <point x="130" y="-66"/>
      <point x="76" y="-106"/>
      <point x="76" y="-176" type="curve" smooth="yes"/>
    </contour>
  </outline>
</glyph>
<glyph name="thoThan-thai" format="2">
  <advance width="547"/>
  <unicode hex="0E10"/>
  <anchor x="461" y="-189" name="bottom"/>
  <anchor x="466" y="536" name="top"/>
  <outline>
    <contour>
      <point x="143" y="0" type="line"/>
      <point x="227" y="0" type="line" smooth="yes"/>
      <point x="403" y="0"/>
      <point x="467" y="100"/>
      <point x="467" y="275" type="curve" smooth="yes"/>
      <point x="467" y="375"/>
      <point x="446" y="450"/>
      <point x="389" y="492" type="curve"/>
      <point x="358" y="537"/>
      <point x="300" y="558"/>
      <point x="219" y="558" type="curve" smooth="yes"/>
      <point x="143" y="558"/>
      <point x="74" y="540"/>
      <point x="34" y="516" type="curve"/>
      <point x="34" y="433" type="line"/>
      <point x="87" y="468"/>
      <point x="145" y="484"/>
      <point x="208" y="484" type="curve" smooth="yes"/>
      <point x="331" y="484"/>
      <point x="376" y="424"/>
      <point x="376" y="276" type="curve" smooth="yes"/>
      <point x="376" y="128"/>
      <point x="331" y="72"/>
      <point x="241" y="72" type="curve" smooth="yes"/>
      <point x="228" y="72" type="line"/>
      <point x="228" y="314" type="line"/>
      <point x="67" y="314" type="line"/>
      <point x="67" y="244" type="line"/>
      <point x="143" y="244" type="line"/>
    </contour>
    <contour>
      <point x="41" y="-201" type="line"/>
      <point x="120" y="-201" type="line"/>
      <point x="120" y="-192" type="line" smooth="yes"/>
      <point x="120" y="-167"/>
      <point x="130" y="-136"/>
      <point x="164" y="-136" type="curve" smooth="yes"/>
      <point x="197" y="-136"/>
      <point x="219" y="-165"/>
      <point x="234" y="-201" type="curve"/>
      <point x="253" y="-201" type="line"/>
      <point x="310" y="-145" type="line"/>
      <point x="376" y="-201" type="line"/>
      <point x="460" y="-201" type="line"/>
      <point x="460" y="-52" type="line"/>
      <point x="380" y="-52" type="line"/>
      <point x="380" y="-145" type="line"/>
      <point x="401" y="-140" type="line"/>
      <point x="310" y="-71" type="line"/>
      <point x="251" y="-125" type="line"/>
      <point x="233" y="-93"/>
      <point x="204" y="-67"/>
      <point x="150" y="-67" type="curve" smooth="yes"/>
      <point x="93" y="-67"/>
      <point x="41" y="-106"/>
      <point x="41" y="-177" type="curve" smooth="yes"/>
    </contour>
    <contour>
      <point x="401" y="471" type="line"/>
      <point x="461" y="482"/>
      <point x="510" y="521"/>
      <point x="510" y="584" type="curve"/>
      <point x="423" y="584" type="line"/>
      <point x="423" y="544"/>
      <point x="385" y="523"/>
      <point x="351" y="518" type="curve"/>
    </contour>
  </outline>
</glyph>
<glyph name="thoNangmontho-thai" format="2">
  <advance width="626"/>
  <unicode hex="0E11"/>
  <anchor x="547" y="0" name="bottom"/>
  <anchor x="536" y="536" name="top"/>
  <outline>
    <contour>
      <point x="98" y="0" type="line"/>
      <point x="187" y="0" type="line"/>
      <point x="187" y="210" type="line" smooth="yes"/>
      <point x="187" y="300"/>
      <point x="200" y="330"/>
      <point x="246" y="386" type="curve" smooth="yes"/>
      <point x="300" y="453"/>
      <point x="341" y="482"/>
      <point x="387" y="482" type="curve" smooth="yes"/>
      <point x="431" y="482"/>
      <point x="456" y="455"/>
      <point x="456" y="395" type="curve" smooth="yes"/>
      <point x="456" y="0" type="line"/>
      <point x="545" y="0" type="line"/>
      <point x="545" y="412" type="line" smooth="yes"/>
      <point x="545" y="497"/>
      <point x="506" y="558"/>
      <point x="402" y="558" type="curve" smooth="yes"/>
      <point x="351" y="558"/>
      <point x="301" y="540"/>
      <point x="260" y="475" type="curve"/>
      <point x="256" y="475" type="line"/>
      <point x="256" y="548" type="line"/>
      <point x="210" y="548" type="line"/>
      <point x="191" y="507" type="line"/>
      <point x="180" y="495"/>
      <point x="167" y="491"/>
      <point x="155" y="491" type="curve" smooth="yes"/>
      <point x="131" y="491"/>
      <point x="122" y="506"/>
      <point x="122" y="548" type="curve"/>
      <point x="44" y="548" type="line"/>
      <point x="44" y="527" type="line" smooth="yes"/>
      <point x="44" y="467"/>
      <point x="78" y="433"/>
      <point x="126" y="433" type="curve" smooth="yes"/>
      <point x="150" y="433"/>
      <point x="169" y="441"/>
      <point x="184" y="452" type="curve"/>
      <point x="187" y="450" type="line"/>
      <point x="184" y="431"/>
      <point x="181" y="427"/>
      <point x="139" y="378" type="curve" smooth="yes"/>
      <point x="105" y="339"/>
      <point x="98" y="297"/>
      <point x="98" y="214" type="curve" smooth="yes"/>
    </contour>
  </outline>
</glyph>
<glyph name="thoPhuthao-thai" format="2">
  <advance width="903"/>
  <unicode hex="0E12"/>
  <anchor x="831" y="0" name="bottom"/>
  <anchor x="850" y="536" name="top"/>
  <outline>
    <contour>
      <point x="270" y="-10" type="curve" smooth="yes"/>
      <point x="299" y="-10"/>
      <point x="327" y="-7"/>
      <point x="348" y="3" type="curve"/>
      <point x="339" y="71" type="line"/>
      <point x="323" y="67"/>
      <point x="307" y="64"/>
      <point x="282" y="64" type="curve" smooth="yes"/>
      <point x="176" y="64"/>
      <point x="152" y="142"/>
      <point x="152" y="284" type="curve" smooth="yes"/>
      <point x="152" y="436"/>
      <point x="178" y="484"/>
      <point x="227" y="484" type="curve" smooth="yes"/>
      <point x="253" y="484"/>
      <point x="274" y="471"/>
      <point x="279" y="424" type="curve"/>
      <point x="334" y="424" type="line"/>
      <point x="338" y="466"/>
      <point x="355" y="484"/>
      <point x="388" y="484" type="curve" smooth="yes"/>
      <point x="418" y="484"/>
      <point x="439" y="468"/>
      <point x="439" y="417" type="curve" smooth="yes"/>
      <point x="439" y="0" type="line"/>
      <point x="512" y="0" type="line"/>
      <point x="517" y="87" type="line"/>
      <point x="521" y="87" type="line"/>
      <point x="544" y="30"/>
      <point x="601" y="-10"/>
      <point x="686" y="-10" type="curve" smooth="yes"/>
      <point x="780" y="-10"/>
      <point x="851" y="41"/>
      <point x="851" y="173" type="curve" smooth="yes"/>
      <point x="851" y="548" type="line"/>
      <point x="762" y="548" type="line"/>
      <point x="762" y="179" type="line" smooth="yes"/>
      <point x="762" y="99"/>
      <point x="722" y="65"/>
      <point x="663" y="65" type="curve" smooth="yes"/>
      <point x="581" y="65"/>
      <point x="528" y="130"/>
      <point x="528" y="228" type="curve" smooth="yes"/>
      <point x="528" y="418" type="line" smooth="yes"/>
      <point x="528" y="512"/>
      <point x="478" y="558"/>
      <point x="402" y="558" type="curve" smooth="yes"/>
      <point x="358" y="558"/>
      <point x="323" y="544"/>
      <point x="310" y="506" type="curve"/>
      <point x="306" y="506" type="line"/>
      <point x="293" y="543"/>
      <point x="260" y="558"/>
      <point x="216" y="558" type="curve" smooth="yes"/>
      <point x="120" y="558"/>
      <point x="63" y="486"/>
      <point x="63" y="281" type="curve" smooth="yes"/>
      <point x="63" y="108"/>
      <point x="107" y="-10"/>
    </contour>
  </outline>
</glyph>
<glyph name="noNen-thai" format="2">
  <advance width="909"/>
  <unicode hex="0E13"/>
  <anchor x="820" y="0" name="bottom"/>
  <anchor x="820" y="536" name="top"/>
  <outline>
    <contour>
      <point x="194" y="-10" type="curve" smooth="yes"/>
      <point x="216" y="-10"/>
      <point x="240" y="-7"/>
      <point x="265" y="5" type="curve"/>
      <point x="252" y="69" type="line"/>
      <point x="241" y="65"/>
      <point x="228" y="63"/>
      <point x="215" y="63" type="curve" smooth="yes"/>
      <point x="186" y="63"/>
      <point x="173" y="75"/>
      <point x="173" y="105" type="curve" smooth="yes"/>
      <point x="173" y="193" type="line" smooth="yes"/>
      <point x="173" y="264"/>
      <point x="213" y="292"/>
      <point x="263" y="292" type="curve"/>
      <point x="271" y="340" type="line"/>
      <point x="157" y="394" type="line"/>
      <point x="158" y="453"/>
      <point x="209" y="484"/>
      <point x="280" y="484" type="curve" smooth="yes"/>
      <point x="346" y="484"/>
      <point x="408" y="457"/>
      <point x="408" y="361" type="curve" smooth="yes"/>
      <point x="408" y="172" type="line" smooth="yes"/>
      <point x="408" y="41"/>
      <point x="478" y="-10"/>
      <point x="580" y="-10" type="curve" smooth="yes"/>
      <point x="652" y="-10"/>
      <point x="715" y="26"/>
      <point x="738" y="87" type="curve"/>
      <point x="743" y="87" type="line"/>
      <point x="748" y="0" type="line"/>
      <point x="821" y="0" type="line"/>
      <point x="821" y="548" type="line"/>
      <point x="732" y="548" type="line"/>
      <point x="732" y="228" type="line" smooth="yes"/>
      <point x="732" y="130"/>
      <point x="678" y="65"/>
      <point x="598" y="65" type="curve" smooth="yes"/>
      <point x="536" y="65"/>
      <point x="497" y="99"/>
      <point x="497" y="179" type="curve" smooth="yes"/>
      <point x="497" y="370" type="line" smooth="yes"/>
      <point x="497" y="508"/>
      <point x="391" y="558"/>
      <point x="281" y="558" type="curve" smooth="yes"/>
      <point x="150" y="558"/>
      <point x="66" y="487"/>
      <point x="66" y="399" type="curve" smooth="yes"/>
      <point x="66" y="366" type="line"/>
      <point x="181" y="324" type="line"/>
      <point x="180" y="321" type="line"/>
      <point x="123" y="306"/>
      <point x="84" y="275"/>
      <point x="84" y="192" type="curve" smooth="yes"/>
      <point x="84" y="95" type="line" smooth="yes"/>
      <point x="84" y="13"/>
      <point x="137" y="-10"/>
    </contour>
  </outline>
</glyph>
<glyph name="doDek-thai" format="2">
  <advance width="616"/>
  <unicode hex="0E14"/>
  <anchor x="535" y="0" name="bottom"/>
  <anchor x="527" y="536" name="top"/>
  <outline>
    <contour>
      <point x="268" y="-10" type="curve" smooth="yes"/>
      <point x="293" y="-10"/>
      <point x="323" y="-7"/>
      <point x="344" y="3" type="curve"/>
      <point x="335" y="72" type="line"/>
      <point x="319" y="67"/>
      <point x="302" y="64"/>
      <point x="282" y="64" type="curve" smooth="yes"/>
      <point x="178" y="64"/>
      <point x="149" y="153"/>
      <point x="149" y="269" type="curve" smooth="yes"/>
      <point x="149" y="446"/>
      <point x="216" y="484"/>
      <point x="309" y="484" type="curve" smooth="yes"/>
      <point x="410" y="484"/>
      <point x="447" y="439"/>
      <point x="447" y="357" type="curve" smooth="yes"/>
      <point x="447" y="0" type="line"/>
      <point x="535" y="0" type="line"/>
      <point x="535" y="365" type="line" smooth="yes"/>
      <point x="535" y="484"/>
      <point x="466" y="558"/>
      <point x="306" y="558" type="curve" smooth="yes"/>
      <point x="159" y="558"/>
      <point x="60" y="496"/>
      <point x="60" y="270" type="curve" smooth="yes"/>
      <point x="60" y="115"/>
      <point x="107" y="-10"/>
    </contour>
  </outline>
</glyph>
<glyph name="toTao-thai" format="2">
  <advance width="636"/>
  <unicode hex="0E15"/>
  <note>
uni0E15
</note>
  <anchor x="555" y="0" name="bottom"/>
  <anchor x="543" y="536" name="top"/>
  <outline>
    <contour>
      <point x="275" y="-10" type="curve" smooth="yes"/>
      <point x="303" y="-10"/>
      <point x="333" y="-7"/>
      <point x="353" y="3" type="curve"/>
      <point x="344" y="71" type="line"/>
      <point x="328" y="67"/>
      <point x="312" y="64"/>
      <point x="286" y="64" type="curve" smooth="yes"/>
      <point x="176" y="64"/>
      <point x="152" y="146"/>
      <point x="152" y="284" type="curve" smooth="yes"/>
      <point x="152" y="426"/>
      <point x="178" y="484"/>
      <point x="232" y="484" type="curve" smooth="yes"/>
      <point x="260" y="484"/>
      <point x="286" y="471"/>
      <point x="291" y="424" type="curve"/>
      <point x="347" y="424" type="line"/>
      <point x="351" y="466"/>
      <point x="367" y="484"/>
      <point x="406" y="484" type="curve" smooth="yes"/>
      <point x="441" y="484"/>
      <point x="466" y="469"/>
      <point x="466" y="417" type="curve" smooth="yes"/>
      <point x="466" y="0" type="line"/>
      <point x="555" y="0" type="line"/>
      <point x="555" y="418" type="line" smooth="yes"/>
      <point x="555" y="512"/>
      <point x="506" y="558"/>
      <point x="419" y="558" type="curve" smooth="yes"/>
      <point x="372" y="558"/>
      <point x="335" y="544"/>
      <point x="322" y="506" type="curve"/>
      <point x="318" y="506" type="line"/>
      <point x="305" y="543"/>
      <point x="271" y="558"/>
      <point x="224" y="558" type="curve" smooth="yes"/>
      <point x="120" y="558"/>
      <point x="63" y="480"/>
      <point x="63" y="285" type="curve" smooth="yes"/>
      <point x="63" y="115"/>
      <point x="107" y="-10"/>
    </contour>
  </outline>
</glyph>
<glyph name="thoThung-thai" format="2">
  <advance width="602"/>
  <unicode hex="0E16"/>
  <anchor x="521" y="0" name="bottom"/>
  <anchor x="510" y="536" name="top"/>
  <outline>
    <contour>
      <point x="194" y="-10" type="curve" smooth="yes"/>
      <point x="216" y="-10"/>
      <point x="240" y="-7"/>
      <point x="265" y="5" type="curve"/>
      <point x="252" y="69" type="line"/>
      <point x="241" y="65"/>
      <point x="228" y="63"/>
      <point x="215" y="63" type="curve" smooth="yes"/>
      <point x="186" y="63"/>
      <point x="173" y="75"/>
      <point x="173" y="105" type="curve" smooth="yes"/>
      <point x="173" y="203" type="line" smooth="yes"/>
      <point x="173" y="273"/>
      <point x="213" y="291"/>
      <point x="263" y="292" type="curve"/>
      <point x="271" y="340" type="line"/>
      <point x="157" y="394" type="line"/>
      <point x="157" y="446"/>
      <point x="208" y="484"/>
      <point x="291" y="484" type="curve" smooth="yes"/>
      <point x="370" y="484"/>
      <point x="432" y="449"/>
      <point x="432" y="360" type="curve" smooth="yes"/>
      <point x="432" y="0" type="line"/>
      <point x="521" y="0" type="line"/>
      <point x="521" y="369" type="line" smooth="yes"/>
      <point x="521" y="502"/>
      <point x="415" y="558"/>
      <point x="292" y="558" type="curve" smooth="yes"/>
      <point x="150" y="558"/>
      <point x="66" y="481"/>
      <point x="66" y="399" type="curve" smooth="yes"/>
      <point x="66" y="366" type="line"/>
      <point x="181" y="324" type="line"/>
      <point x="180" y="321" type="line"/>
      <point x="123" y="306"/>
      <point x="84" y="275"/>
      <point x="84" y="192" type="curve" smooth="yes"/>
      <point x="84" y="95" type="line" smooth="yes"/>
      <point x="84" y="13"/>
      <point x="137" y="-10"/>
    </contour>
  </outline>
</glyph>
<glyph name="thoThahan-thai" format="2">
  <advance width="609"/>
  <unicode hex="0E17"/>
  <anchor x="528" y="0" name="bottom"/>
  <anchor x="517" y="536" name="top"/>
  <outline>
    <contour>
      <point x="84" y="0" type="line"/>
      <point x="173" y="0" type="line"/>
      <point x="173" y="317" type="line" smooth="yes"/>
      <point x="173" y="410"/>
      <point x="226" y="483"/>
      <point x="320" y="483" type="curve" smooth="yes"/>
      <point x="398" y="483"/>
      <point x="439" y="441"/>
      <point x="439" y="361" type="curve" smooth="yes"/>
      <point x="439" y="0" type="line"/>
      <point x="528" y="0" type="line"/>
      <point x="528" y="366" type="line" smooth="yes"/>
      <point x="528" y="499"/>
      <point x="456" y="558"/>
      <point x="337" y="558" type="curve" smooth="yes"/>
      <point x="252" y="558"/>
      <point x="189" y="521"/>
      <point x="166" y="461" type="curve"/>
      <point x="162" y="461" type="line"/>
      <point x="146" y="548" type="line"/>
      <point x="84" y="548" type="line"/>
    </contour>
  </outline>
</glyph>
<glyph name="thoThong-thai" format="2">
  <advance width="544"/>
  <unicode hex="0E18"/>
  <anchor x="446" y="0" name="bottom"/>
  <anchor x="472" y="536" name="top"/>
  <outline>
    <contour>
      <point x="273" y="-10" type="curve" smooth="yes"/>
      <point x="433" y="-10"/>
      <point x="496" y="58"/>
      <point x="496" y="163" type="curve" smooth="yes"/>
      <point x="496" y="291"/>
      <point x="400" y="321"/>
      <point x="293" y="351" type="curve" smooth="yes"/>
      <point x="205" y="375"/>
      <point x="152" y="389"/>
      <point x="152" y="431" type="curve" smooth="yes"/>
      <point x="152" y="471"/>
      <point x="195" y="485"/>
      <point x="264" y="485" type="curve" smooth="yes"/>
      <point x="349" y="485"/>
      <point x="425" y="464"/>
      <point x="460" y="446" type="curve"/>
      <point x="460" y="525" type="line"/>
      <point x="429" y="540"/>
      <point x="365" y="558"/>
      <point x="273" y="558" type="curve" smooth="yes"/>
      <point x="126" y="558"/>
      <point x="63" y="510"/>
      <point x="63" y="424" type="curve" smooth="yes"/>
      <point x="63" y="344"/>
      <point x="119" y="318"/>
      <point x="242" y="281" type="curve" smooth="yes"/>
      <point x="351" y="248"/>
      <point x="408" y="238"/>
      <point x="408" y="162" type="curve" smooth="yes"/>
      <point x="408" y="79"/>
      <point x="342" y="62"/>
      <point x="274" y="62" type="curve" smooth="yes"/>
      <point x="227" y="62"/>
      <point x="182" y="71"/>
      <point x="164" y="81" type="curve"/>
      <point x="164" y="254" type="line"/>
      <point x="81" y="254" type="line"/>
      <point x="81" y="26" type="line"/>
      <point x="126" y="8"/>
      <point x="189" y="-10"/>
    </contour>
  </outline>
</glyph>
<glyph name="noNu-thai" format="2">
  <advance width="613"/>
  <unicode hex="0E19"/>
  <note>
uni0E19
</note>
  <anchor x="524" y="0" name="bottom"/>
  <anchor x="524" y="536" name="top"/>
  <outline>
    <contour>
      <point x="270" y="-10" type="curve" smooth="yes"/>
      <point x="357" y="-10"/>
      <point x="418" y="27"/>
      <point x="442" y="81" type="curve"/>
      <point x="447" y="81" type="line"/>
      <point x="451" y="0" type="line"/>
      <point x="525" y="0" type="line"/>
      <point x="525" y="548" type="line"/>
      <point x="436" y="548" type="line"/>
      <point x="436" y="231" type="line" smooth="yes"/>
      <point x="436" y="130"/>
      <point x="382" y="65"/>
      <point x="289" y="65" type="curve" smooth="yes"/>
      <point x="211" y="65"/>
      <point x="170" y="107"/>
      <point x="170" y="187" type="curve" smooth="yes"/>
      <point x="170" y="548" type="line"/>
      <point x="81" y="548" type="line"/>
      <point x="81" y="182" type="line" smooth="yes"/>
      <point x="81" y="49"/>
      <point x="152" y="-10"/>
    </contour>
  </outline>
</glyph>
<glyph name="boBaimai-thai" format="2">
  <advance width="604"/>
  <unicode hex="0E1A"/>
  <note>
uni0E1A
</note>
  <anchor x="502" y="0" name="bottom"/>
  <anchor x="522" y="536" name="top"/>
  <outline>
    <contour>
      <point x="301" y="-10" type="curve" smooth="yes"/>
      <point x="459" y="-10"/>
      <point x="523" y="64"/>
      <point x="523" y="198" type="curve" smooth="yes"/>
      <point x="523" y="548" type="line"/>
      <point x="434" y="548" type="line"/>
      <point x="434" y="197" type="line" smooth="yes"/>
      <point x="434" y="108"/>
      <point x="392" y="64"/>
      <point x="301" y="64" type="curve" smooth="yes"/>
      <point x="212" y="64"/>
      <point x="170" y="108"/>
      <point x="170" y="197" type="curve" smooth="yes"/>
      <point x="170" y="548" type="line"/>
      <point x="81" y="548" type="line"/>
      <point x="81" y="198" type="line" smooth="yes"/>
      <point x="81" y="64"/>
      <point x="144" y="-10"/>
    </contour>
  </outline>
</glyph>
<glyph name="poPla-thai" format="2">
  <advance width="605"/>
  <unicode hex="0E1B"/>
  <note>
uni0E1B
</note>
  <anchor x="502" y="0" name="bottom"/>
  <anchor x="378" y="536" name="top"/>
  <outline>
    <contour>
      <point x="301" y="-10" type="curve" smooth="yes"/>
      <point x="459" y="-10"/>
      <point x="523" y="64"/>
      <point x="523" y="198" type="curve" smooth="yes"/>
      <point x="523" y="745" type="line"/>
      <point x="434" y="745" type="line"/>
      <point x="434" y="197" type="line" smooth="yes"/>
      <point x="434" y="108"/>
      <point x="392" y="64"/>
      <point x="301" y="64" type="curve" smooth="yes"/>
      <point x="212" y="64"/>
      <point x="170" y="108"/>
      <point x="170" y="197" type="curve" smooth="yes"/>
      <point x="170" y="548" type="line"/>
      <point x="81" y="548" type="line"/>
      <point x="81" y="198" type="line" smooth="yes"/>
      <point x="81" y="64"/>
      <point x="144" y="-10"/>
    </contour>
  </outline>
</glyph>
<glyph name="phoPhung-thai" format="2">
  <advance width="648"/>
  <unicode hex="0E1C"/>
  <anchor x="560" y="0" name="bottom"/>
  <anchor x="560" y="536" name="top"/>
  <outline>
    <contour>
      <point x="86" y="0" type="line"/>
      <point x="165" y="0" type="line"/>
      <point x="322" y="262" type="line"/>
      <point x="326" y="262" type="line"/>
      <point x="481" y="0" type="line"/>
      <point x="560" y="0" type="line"/>
      <point x="560" y="548" type="line"/>
      <point x="473" y="548" type="line"/>
      <point x="473" y="284" type="line" smooth="yes"/>
      <point x="473" y="243"/>
      <point x="473" y="202"/>
      <point x="477" y="139" type="curve"/>
      <point x="473" y="139" type="line"/>
      <point x="454" y="181"/>
      <point x="435" y="214"/>
      <point x="404" y="268" type="curve" smooth="yes"/>
      <point x="351" y="358" type="line"/>
      <point x="295" y="358" type="line"/>
      <point x="242" y="268" type="line" smooth="yes"/>
      <point x="222" y="233"/>
      <point x="199" y="197"/>
      <point x="173" y="139" type="curve"/>
      <point x="169" y="139" type="line"/>
      <point x="173" y="202"/>
      <point x="173" y="243"/>
      <point x="173" y="284" type="curve" smooth="yes"/>
      <point x="173" y="439" type="line" smooth="yes"/>
      <point x="173" y="468"/>
      <point x="184" y="485"/>
      <point x="217" y="485" type="curve" smooth="yes"/>
      <point x="225" y="485"/>
      <point x="240" y="483"/>
      <point x="253" y="479" type="curve"/>
      <point x="264" y="546" type="line"/>
      <point x="247" y="554"/>
      <point x="220" y="558"/>
      <point x="205" y="558" type="curve" smooth="yes"/>
      <point x="143" y="558"/>
      <point x="86" y="536"/>
      <point x="86" y="451" type="curve" smooth="yes"/>
    </contour>
  </outline>
</glyph>
<glyph name="phoPhan-thai" format="2">
  <advance width="695"/>
  <unicode hex="0E1E"/>
  <note>
uni0E1E
</note>
  <anchor x="555" y="0" name="bottom"/>
  <anchor x="612" y="536" name="top"/>
  <outline>
    <contour>
      <point x="140" y="0" type="line"/>
      <point x="227" y="0" type="line"/>
      <point x="317" y="298" type="line" smooth="yes"/>
      <point x="327" y="330"/>
      <point x="337" y="362"/>
      <point x="346" y="421" type="curve"/>
      <point x="350" y="421" type="line"/>
      <point x="358" y="362"/>
      <point x="366" y="331"/>
      <point x="376" y="298" type="curve" smooth="yes"/>
      <point x="468" y="0" type="line"/>
      <point x="555" y="0" type="line"/>
      <point x="654" y="548" type="line"/>
      <point x="563" y="548" type="line"/>
      <point x="523" y="310" type="line" smooth="yes"/>
      <point x="516" y="271"/>
      <point x="510" y="210"/>
      <point x="502" y="126" type="curve"/>
      <point x="498" y="126" type="line"/>
      <point x="480" y="211"/>
      <point x="463" y="271"/>
      <point x="451" y="313" type="curve" smooth="yes"/>
      <point x="383" y="548" type="line"/>
      <point x="310" y="548" type="line"/>
      <point x="243" y="313" type="line" smooth="yes"/>
      <point x="231" y="271"/>
      <point x="213" y="211"/>
      <point x="196" y="126" type="curve"/>
      <point x="193" y="126" type="line"/>
      <point x="183" y="210"/>
      <point x="177" y="271"/>
      <point x="171" y="310" type="curve" smooth="yes"/>
      <point x="132" y="548" type="line"/>
      <point x="41" y="548" type="line"/>
    </contour>
  </outline>
</glyph>
<glyph name="foFan-thai" format="2">
  <advance width="682"/>
  <unicode hex="0E1F"/>
  <anchor x="551" y="0" name="bottom"/>
  <anchor x="477" y="536" name="top"/>
  <outline>
    <contour>
      <point x="136" y="0" type="line"/>
      <point x="223" y="0" type="line"/>
      <point x="314" y="298" type="line" smooth="yes"/>
      <point x="324" y="330"/>
      <point x="332" y="362"/>
      <point x="342" y="421" type="curve"/>
      <point x="346" y="421" type="line"/>
      <point x="355" y="362"/>
      <point x="363" y="326"/>
      <point x="372" y="298" type="curve" smooth="yes"/>
      <point x="463" y="0" type="line"/>
      <point x="551" y="0" type="line"/>
      <point x="661" y="745" type="line"/>
      <point x="573" y="745" type="line"/>
      <point x="516" y="310" type="line" smooth="yes"/>
      <point x="511" y="271"/>
      <point x="505" y="207"/>
      <point x="497" y="126" type="curve"/>
      <point x="493" y="126" type="line"/>
      <point x="482" y="181"/>
      <point x="467" y="243"/>
      <point x="447" y="313" type="curve" smooth="yes"/>
      <point x="379" y="548" type="line"/>
      <point x="307" y="548" type="line"/>
      <point x="239" y="313" type="line" smooth="yes"/>
      <point x="219" y="243"/>
      <point x="203" y="181"/>
      <point x="193" y="126" type="curve"/>
      <point x="188" y="126" type="line"/>
      <point x="180" y="199"/>
      <point x="170" y="291"/>
      <point x="167" y="310" type="curve" smooth="yes"/>
      <point x="132" y="548" type="line"/>
      <point x="41" y="548" type="line"/>
    </contour>
  </outline>
</glyph>
<glyph name="phoSamphao-thai" format="2">
  <advance width="603"/>
  <unicode hex="0E20"/>
  <anchor x="522" y="0" name="bottom"/>
  <anchor x="511" y="536" name="top"/>
  <outline>
    <contour>
      <point x="88" y="-10" type="curve" smooth="yes"/>
      <point x="140" y="-10"/>
      <point x="181" y="12"/>
      <point x="181" y="94" type="curve" smooth="yes"/>
      <point x="181" y="191" type="line" smooth="yes"/>
      <point x="181" y="262"/>
      <point x="214" y="292"/>
      <point x="264" y="292" type="curve"/>
      <point x="272" y="340" type="line"/>
      <point x="158" y="394" type="line"/>
      <point x="158" y="446"/>
      <point x="209" y="484"/>
      <point x="292" y="484" type="curve" smooth="yes"/>
      <point x="370" y="484"/>
      <point x="433" y="449"/>
      <point x="433" y="360" type="curve" smooth="yes"/>
      <point x="433" y="0" type="line"/>
      <point x="522" y="0" type="line"/>
      <point x="522" y="369" type="line" smooth="yes"/>
      <point x="522" y="502"/>
      <point x="416" y="558"/>
      <point x="293" y="558" type="curve" smooth="yes"/>
      <point x="150" y="558"/>
      <point x="67" y="481"/>
      <point x="67" y="399" type="curve" smooth="yes"/>
      <point x="67" y="366" type="line"/>
      <point x="182" y="324" type="line"/>
      <point x="181" y="321" type="line"/>
      <point x="124" y="307"/>
      <point x="92" y="276"/>
      <point x="92" y="194" type="curve" smooth="yes"/>
      <point x="92" y="101" type="line" smooth="yes"/>
      <point x="92" y="73"/>
      <point x="83" y="61"/>
      <point x="62" y="61" type="curve" smooth="yes"/>
      <point x="51" y="61"/>
      <point x="38" y="64"/>
      <point x="29" y="67" type="curve"/>
      <point x="19" y="5" type="line"/>
      <point x="42" y="-6"/>
      <point x="64" y="-10"/>
    </contour>
  </outline>
</glyph>
<glyph name="moMa-thai" format="2">
  <advance width="614"/>
  <unicode hex="0E21"/>
  <note>
uni0E21
</note>
  <anchor x="511" y="0" name="bottom"/>
  <anchor x="533" y="536" name="top"/>
  <outline>
    <contour>
      <point x="345" y="-10" type="curve" smooth="yes"/>
      <point x="463" y="-10"/>
      <point x="533" y="49"/>
      <point x="533" y="181" type="curve" smooth="yes"/>
      <point x="533" y="548" type="line"/>
      <point x="444" y="548" type="line"/>
      <point x="444" y="187" type="line" smooth="yes"/>
      <point x="444" y="107"/>
      <point x="405" y="65"/>
      <point x="327" y="65" type="curve" smooth="yes"/>
      <point x="232" y="65"/>
      <point x="178" y="130"/>
      <point x="178" y="231" type="curve" smooth="yes"/>
      <point x="178" y="548" type="line"/>
      <point x="89" y="548" type="line"/>
      <point x="89" y="0" type="line"/>
      <point x="162" y="0" type="line"/>
      <point x="167" y="87" type="line"/>
      <point x="171" y="87" type="line"/>
      <point x="194" y="26"/>
      <point x="259" y="-10"/>
    </contour>
  </outline>
</glyph>
<glyph name="yoYak-thai" format="2">
  <advance width="594"/>
  <unicode hex="0E22"/>
  <note>
uni0E22
</note>
  <anchor x="491" y="0" name="bottom"/>
  <anchor x="513" y="536" name="top"/>
  <outline>
    <contour>
      <point x="292" y="-9" type="curve" smooth="yes"/>
      <point x="444" y="-9"/>
      <point x="513" y="48"/>
      <point x="513" y="188" type="curve" smooth="yes"/>
      <point x="513" y="548" type="line"/>
      <point x="424" y="548" type="line"/>
      <point x="424" y="182" type="line" smooth="yes"/>
      <point x="424" y="108"/>
      <point x="393" y="64"/>
      <point x="292" y="64" type="curve" smooth="yes"/>
      <point x="189" y="64"/>
      <point x="161" y="111"/>
      <point x="161" y="169" type="curve" smooth="yes"/>
      <point x="161" y="235"/>
      <point x="198" y="262"/>
      <point x="278" y="262" type="curve" smooth="yes"/>
      <point x="297" y="262" type="line"/>
      <point x="297" y="327" type="line"/>
      <point x="278" y="327" type="line" smooth="yes"/>
      <point x="218" y="327"/>
      <point x="158" y="341"/>
      <point x="158" y="411" type="curve" smooth="yes"/>
      <point x="158" y="454"/>
      <point x="184" y="482"/>
      <point x="240" y="482" type="curve" smooth="yes"/>
      <point x="265" y="482"/>
      <point x="290" y="476"/>
      <point x="305" y="471" type="curve"/>
      <point x="321" y="540" type="line"/>
      <point x="302" y="550"/>
      <point x="263" y="555"/>
      <point x="231" y="555" type="curve" smooth="yes"/>
      <point x="112" y="555"/>
      <point x="68" y="487"/>
      <point x="68" y="418" type="curve" smooth="yes"/>
      <point x="68" y="341"/>
      <point x="120" y="307"/>
      <point x="161" y="296" type="curve"/>
      <point x="161" y="292" type="line"/>
      <point x="117" y="284"/>
      <point x="71" y="253"/>
      <point x="71" y="161" type="curve" smooth="yes"/>
      <point x="71" y="57"/>
      <point x="130" y="-9"/>
    </contour>
  </outline>
</glyph>
<glyph name="roRua-thai" format="2">
  <advance width="488"/>
  <unicode hex="0E23"/>
  <note>
uni0E23
</note>
  <anchor x="399" y="0" name="bottom"/>
  <anchor x="448" y="536" name="top"/>
  <outline>
    <contour>
      <point x="235" y="-10" type="curve" smooth="yes"/>
      <point x="393" y="-10"/>
      <point x="449" y="66"/>
      <point x="449" y="150" type="curve" smooth="yes"/>
      <point x="449" y="248"/>
      <point x="370" y="287"/>
      <point x="274" y="320" type="curve" smooth="yes"/>
      <point x="169" y="356"/>
      <point x="136" y="374"/>
      <point x="136" y="418" type="curve" smooth="yes"/>
      <point x="136" y="453"/>
      <point x="168" y="485"/>
      <point x="258" y="485" type="curve" smooth="yes"/>
      <point x="321" y="485"/>
      <point x="384" y="467"/>
      <point x="418" y="451" type="curve"/>
      <point x="418" y="526" type="line"/>
      <point x="386" y="546"/>
      <point x="325" y="558"/>
      <point x="261" y="558" type="curve" smooth="yes"/>
      <point x="112" y="558"/>
      <point x="47" y="497"/>
      <point x="47" y="414" type="curve" smooth="yes"/>
      <point x="47" y="319"/>
      <point x="115" y="279"/>
      <point x="242" y="239" type="curve" smooth="yes"/>
      <point x="324" y="213"/>
      <point x="360" y="187"/>
      <point x="360" y="142" type="curve" smooth="yes"/>
      <point x="360" y="91"/>
      <point x="308" y="64"/>
      <point x="237" y="64" type="curve" smooth="yes"/>
      <point x="170" y="64"/>
      <point x="108" y="84"/>
      <point x="66" y="101" type="curve"/>
      <point x="40" y="29" type="line"/>
      <point x="87" y="8"/>
      <point x="156" y="-10"/>
    </contour>
  </outline>
</glyph>
<glyph name="ru-thai" format="2">
  <advance width="602"/>
  <unicode hex="0E24"/>
  <anchor x="521" y="-189" name="bottom"/>
  <anchor x="504" y="536" name="top"/>
  <outline>
    <contour>
      <point x="432" y="-201" type="line"/>
      <point x="521" y="-201" type="line"/>
      <point x="521" y="100" type="line"/>
      <point x="432" y="100" type="line"/>
    </contour>
    <component base="thoThung-thai"/>
  </outline>
</glyph>
<glyph name="loLing-thai" format="2">
  <advance width="571"/>
  <unicode hex="0E25"/>
  <anchor x="490" y="0" name="bottom"/>
  <anchor x="475" y="536" name="top"/>
  <outline>
    <contour>
      <point x="402" y="0" type="line"/>
      <point x="490" y="0" type="line"/>
      <point x="490" y="370" type="line" smooth="yes"/>
      <point x="490" y="499"/>
      <point x="422" y="558"/>
      <point x="282" y="558" type="curve" smooth="yes"/>
      <point x="199" y="558"/>
      <point x="130" y="537"/>
      <point x="92" y="517" type="curve"/>
      <point x="92" y="434" type="line"/>
      <point x="146" y="466"/>
      <point x="207" y="485"/>
      <point x="274" y="485" type="curve" smooth="yes"/>
      <point x="366" y="485"/>
      <point x="402" y="451"/>
      <point x="402" y="365" type="curve" smooth="yes"/>
    </contour>
    <contour>
      <point x="230" y="-10" type="curve" smooth="yes"/>
      <point x="263" y="-10"/>
      <point x="293" y="-6"/>
      <point x="319" y="4" type="curve"/>
      <point x="305" y="71" type="line"/>
      <point x="288" y="65"/>
      <point x="269" y="62"/>
      <point x="247" y="62" type="curve" smooth="yes"/>
      <point x="179" y="62"/>
      <point x="139" y="89"/>
      <point x="139" y="149" type="curve" smooth="yes"/>
      <point x="139" y="213"/>
      <point x="182" y="245"/>
      <point x="318" y="254" type="curve" smooth="yes"/>
      <point x="420" y="261" type="line"/>
      <point x="420" y="335" type="line"/>
      <point x="306" y="328" type="line" smooth="yes"/>
      <point x="124" y="317"/>
      <point x="49" y="257"/>
      <point x="49" y="147" type="curve" smooth="yes"/>
      <point x="49" y="46"/>
      <point x="113" y="-10"/>
    </contour>
  </outline>
</glyph>
<glyph name="woWaen-thai" format="2">
  <advance width="492"/>
  <unicode hex="0E27"/>
  <anchor x="361" y="0" name="bottom"/>
  <anchor x="413" y="536" name="top"/>
  <outline>
    <contour>
      <point x="191" y="-10" type="curve" smooth="yes"/>
      <point x="350" y="-10"/>
      <point x="429" y="100"/>
      <point x="429" y="276" type="curve" smooth="yes"/>
      <point x="429" y="445"/>
      <point x="355" y="558"/>
      <point x="175" y="558" type="curve" smooth="yes"/>
      <point x="128" y="558"/>
      <point x="80" y="551"/>
      <point x="42" y="531" type="curve"/>
      <point x="42" y="456" type="line"/>
      <point x="75" y="475"/>
      <point x="122" y="484"/>
      <point x="165" y="484" type="curve" smooth="yes"/>
      <point x="282" y="484"/>
      <point x="338" y="411"/>
      <point x="338" y="276" type="curve" smooth="yes"/>
      <point x="338" y="138"/>
      <point x="280" y="64"/>
      <point x="181" y="64" type="curve" smooth="yes"/>
      <point x="132" y="64"/>
      <point x="95" y="79"/>
      <point x="66" y="96" type="curve"/>
      <point x="38" y="28" type="line"/>
      <point x="93" y="-1"/>
      <point x="139" y="-10"/>
    </contour>
  </outline>
</glyph>
<glyph name="soSala-thai" format="2">
  <advance width="628"/>
  <unicode hex="0E28"/>
  <anchor x="523" y="0" name="bottom"/>
  <anchor x="528" y="536" name="top"/>
  <outline>
    <contour>
      <point x="81" y="0" type="line"/>
      <point x="170" y="0" type="line"/>
      <point x="170" y="106" type="line" smooth="yes"/>
      <point x="170" y="173"/>
      <point x="196" y="229"/>
      <point x="317" y="229" type="curve" smooth="yes"/>
      <point x="350" y="229" type="line"/>
      <point x="350" y="302" type="line"/>
      <point x="317" y="302" type="line" smooth="yes"/>
      <point x="240" y="302"/>
      <point x="203" y="290"/>
      <point x="173" y="238" type="curve"/>
      <point x="170" y="239" type="line"/>
      <point x="170" y="350" type="line" smooth="yes"/>
      <point x="170" y="439"/>
      <point x="216" y="484"/>
      <point x="307" y="484" type="curve" smooth="yes"/>
      <point x="397" y="484"/>
      <point x="444" y="439"/>
      <point x="444" y="350" type="curve" smooth="yes"/>
      <point x="444" y="0" type="line"/>
      <point x="533" y="0" type="line"/>
      <point x="533" y="350" type="line" smooth="yes"/>
      <point x="533" y="421"/>
      <point x="514" y="475"/>
      <point x="466" y="499" type="curve"/>
      <point x="435" y="542"/>
      <point x="381" y="558"/>
      <point x="307" y="558" type="curve" smooth="yes"/>
      <point x="149" y="558"/>
      <point x="81" y="484"/>
      <point x="81" y="350" type="curve" smooth="yes"/>
    </contour>
    <contour>
      <point x="466" y="471" type="line"/>
      <point x="526" y="482"/>
      <point x="575" y="521"/>
      <point x="575" y="584" type="curve"/>
      <point x="488" y="584" type="line"/>
      <point x="488" y="544"/>
      <point x="450" y="523"/>
      <point x="416" y="518" type="curve"/>
    </contour>
  </outline>
</glyph>
<glyph name="soRusi-thai" format="2">
  <advance width="640"/>
  <unicode hex="0E29"/>
  <anchor x="506" y="0" name="bottom"/>
  <anchor x="537" y="536" name="top"/>
  <outline>
    <contour>
      <point x="309" y="-10" type="curve" smooth="yes"/>
      <point x="474" y="-10"/>
      <point x="537" y="67"/>
      <point x="537" y="203" type="curve" smooth="yes"/>
      <point x="537" y="548" type="line"/>
      <point x="448" y="548" type="line"/>
      <point x="448" y="202" type="line" smooth="yes"/>
      <point x="448" y="108"/>
      <point x="406" y="64"/>
      <point x="309" y="64" type="curve" smooth="yes"/>
      <point x="212" y="64"/>
      <point x="170" y="108"/>
      <point x="170" y="202" type="curve" smooth="yes"/>
      <point x="170" y="548" type="line"/>
      <point x="81" y="548" type="line"/>
      <point x="81" y="203" type="line" smooth="yes"/>
      <point x="81" y="67"/>
      <point x="144" y="-10"/>
    </contour>
    <contour>
      <point x="370" y="226" type="curve" smooth="yes"/>
      <point x="601" y="226" type="line"/>
      <point x="601" y="294" type="line"/>
      <point x="374" y="294" type="line" smooth="yes"/>
      <point x="349" y="294"/>
      <point x="340" y="311"/>
      <point x="340" y="329" type="curve" smooth="yes"/>
      <point x="340" y="340"/>
      <point x="343" y="352"/>
      <point x="346" y="358" type="curve"/>
      <point x="274" y="371" type="line"/>
      <point x="264" y="356"/>
      <point x="259" y="333"/>
      <point x="259" y="313" type="curve" smooth="yes"/>
      <point x="259" y="269"/>
      <point x="285" y="226"/>
    </contour>
  </outline>
</glyph>
<glyph name="hoHip-thai" format="2">
  <advance width="587"/>
  <unicode hex="0E2B"/>
  <note>
uni0E2B
</note>
  <anchor x="518" y="0" name="bottom"/>
  <anchor x="521" y="536" name="top"/>
  <outline>
    <contour>
      <point x="89" y="0" type="line"/>
      <point x="178" y="0" type="line"/>
      <point x="178" y="206" type="line"/>
      <point x="513" y="545" type="line"/>
      <point x="513" y="548" type="line"/>
      <point x="409" y="548" type="line"/>
      <point x="181" y="311" type="line"/>
      <point x="178" y="311" type="line"/>
      <point x="178" y="548" type="line"/>
      <point x="89" y="548" type="line"/>
    </contour>
    <contour>
      <point x="429" y="0" type="line"/>
      <point x="518" y="0" type="line"/>
      <point x="518" y="195" type="line" smooth="yes"/>
      <point x="518" y="312"/>
      <point x="451" y="383"/>
      <point x="326" y="383" type="curve"/>
      <point x="274" y="318" type="line"/>
      <point x="385" y="318"/>
      <point x="429" y="271"/>
      <point x="429" y="193" type="curve" smooth="yes"/>
    </contour>
  </outline>
</glyph>
<glyph name="loChula-thai" format="2">
  <advance width="668"/>
  <unicode hex="0E2C"/>
  <anchor x="538" y="0" name="bottom"/>
  <outline>
    <contour>
      <point x="126" y="0" type="line"/>
      <point x="212" y="0" type="line"/>
      <point x="290" y="219" type="line" smooth="yes"/>
      <point x="307" y="268"/>
      <point x="317" y="305"/>
      <point x="329" y="371" type="curve"/>
      <point x="333" y="371" type="line"/>
      <point x="345" y="310"/>
      <point x="355" y="277"/>
      <point x="375" y="220" type="curve" smooth="yes"/>
      <point x="451" y="0" type="line"/>
      <point x="538" y="0" type="line"/>
      <point x="612" y="418" type="line" smooth="yes"/>
      <point x="620" y="466"/>
      <point x="611" y="530"/>
      <point x="552" y="556" type="curve"/>
      <point x="552" y="559" type="line"/>
      <point x="632" y="575"/>
      <point x="661" y="633"/>
      <point x="661" y="709" type="curve" smooth="yes"/>
      <point x="661" y="714" type="line"/>
      <point x="571" y="714" type="line"/>
      <point x="571" y="709" type="line" smooth="yes"/>
      <point x="571" y="642"/>
      <point x="544" y="602"/>
      <point x="450" y="602" type="curve" smooth="yes"/>
      <point x="369" y="602" type="line"/>
      <point x="369" y="537" type="line"/>
      <point x="415" y="537" type="line" smooth="yes"/>
      <point x="506" y="537"/>
      <point x="542" y="499"/>
      <point x="525" y="408" type="curve" smooth="yes"/>
      <point x="503" y="289" type="line" smooth="yes"/>
      <point x="492" y="229"/>
      <point x="486" y="164"/>
      <point x="486" y="113" type="curve"/>
      <point x="481" y="113" type="line"/>
      <point x="461" y="192"/>
      <point x="447" y="232"/>
      <point x="431" y="276" type="curve" smooth="yes"/>
      <point x="365" y="455" type="line"/>
      <point x="298" y="455" type="line"/>
      <point x="233" y="276" type="line" smooth="yes"/>
      <point x="216" y="229"/>
      <point x="204" y="192"/>
      <point x="183" y="113" type="curve"/>
      <point x="179" y="113" type="line"/>
      <point x="177" y="191"/>
      <point x="168" y="249"/>
      <point x="163" y="289" type="curve" smooth="yes"/>
      <point x="131" y="548" type="line"/>
      <point x="41" y="548" type="line"/>
    </contour>
  </outline>
</glyph>
<glyph name="oAng-thai" format="2">
  <advance width="574"/>
  <unicode hex="0E2D"/>
  <note>
uni0E2D
</note>
  <anchor x="439" y="0" name="bottom"/>
  <anchor x="475" y="536" name="top"/>
  <outline>
    <contour>
      <point x="275" y="-10" type="curve" smooth="yes"/>
      <point x="448" y="-10"/>
      <point x="511" y="93"/>
      <point x="511" y="270" type="curve" smooth="yes"/>
      <point x="511" y="445"/>
      <point x="440" y="558"/>
      <point x="264" y="558" type="curve" smooth="yes"/>
      <point x="187" y="558"/>
      <point x="118" y="540"/>
      <point x="78" y="519" type="curve"/>
      <point x="78" y="436" type="line"/>
      <point x="131" y="467"/>
      <point x="189" y="484"/>
      <point x="253" y="484" type="curve" smooth="yes"/>
      <point x="376" y="484"/>
      <point x="420" y="417"/>
      <point x="420" y="270" type="curve" smooth="yes"/>
      <point x="420" y="102"/>
      <point x="362" y="62"/>
      <point x="273" y="62" type="curve" smooth="yes"/>
      <point x="191" y="62"/>
      <point x="149" y="97"/>
      <point x="149" y="224" type="curve" smooth="yes"/>
      <point x="149" y="244" type="line"/>
      <point x="275" y="244" type="line"/>
      <point x="275" y="314" type="line"/>
      <point x="65" y="314" type="line"/>
      <point x="62" y="283"/>
      <point x="60" y="251"/>
      <point x="60" y="224" type="curve" smooth="yes"/>
      <point x="60" y="62"/>
      <point x="131" y="-10"/>
    </contour>
  </outline>
</glyph>
<glyph name="hoNokhuk-thai" format="2">
  <advance width="560"/>
  <unicode hex="0E2E"/>
  <anchor x="454" y="0" name="bottom"/>
  <anchor x="468" y="536" name="top"/>
  <outline>
    <contour>
      <point x="275" y="-10" type="curve" smooth="yes"/>
      <point x="448" y="-10"/>
      <point x="511" y="93"/>
      <point x="511" y="269" type="curve" smooth="yes"/>
      <point x="511" y="374"/>
      <point x="488" y="456"/>
      <point x="428" y="495" type="curve"/>
      <point x="390" y="540"/>
      <point x="335" y="558"/>
      <point x="264" y="558" type="curve" smooth="yes"/>
      <point x="187" y="558"/>
      <point x="118" y="540"/>
      <point x="78" y="519" type="curve"/>
      <point x="78" y="436" type="line"/>
      <point x="131" y="468"/>
      <point x="189" y="484"/>
      <point x="253" y="484" type="curve" smooth="yes"/>
      <point x="375" y="484"/>
      <point x="420" y="417"/>
      <point x="420" y="270" type="curve" smooth="yes"/>
      <point x="420" y="102"/>
      <point x="362" y="62"/>
      <point x="273" y="62" type="curve" smooth="yes"/>
      <point x="191" y="62"/>
      <point x="149" y="97"/>
      <point x="149" y="224" type="curve" smooth="yes"/>
      <point x="149" y="244" type="line"/>
      <point x="275" y="244" type="line"/>
      <point x="275" y="314" type="line"/>
      <point x="65" y="314" type="line"/>
      <point x="62" y="283"/>
      <point x="60" y="251"/>
      <point x="60" y="224" type="curve" smooth="yes"/>
      <point x="60" y="62"/>
      <point x="131" y="-10"/>
    </contour>
    <contour>
      <point x="426" y="471" type="line"/>
      <point x="486" y="482"/>
      <point x="535" y="521"/>
      <point x="535" y="584" type="curve"/>
      <point x="448" y="584" type="line"/>
      <point x="448" y="544"/>
      <point x="410" y="523"/>
      <point x="376" y="518" type="curve"/>
    </contour>
  </outline>
</glyph>
<glyph name="paiyannoi-thai" format="2">
  <advance width="519"/>
  <unicode hex="0E2F"/>
  <outline>
    <contour>
      <point x="332" y="0" type="line"/>
      <point x="421" y="0" type="line"/>
      <point x="421" y="548" type="line"/>
      <point x="332" y="548" type="line"/>
      <point x="332" y="427" type="line" smooth="yes"/>
      <point x="332" y="333"/>
      <point x="297" y="294"/>
      <point x="215" y="294" type="curve" smooth="yes"/>
      <point x="146" y="294"/>
      <point x="107" y="330"/>
      <point x="107" y="395" type="curve" smooth="yes"/>
      <point x="107" y="458"/>
      <point x="143" y="486"/>
      <point x="187" y="486" type="curve" smooth="yes"/>
      <point x="196" y="486"/>
      <point x="209" y="485"/>
      <point x="227" y="479" type="curve"/>
      <point x="240" y="546" type="line"/>
      <point x="214" y="556"/>
      <point x="190" y="558"/>
      <point x="171" y="558" type="curve" smooth="yes"/>
      <point x="76" y="558"/>
      <point x="18" y="497"/>
      <point x="18" y="399" type="curve" smooth="yes"/>
      <point x="18" y="282"/>
      <point x="95" y="222"/>
      <point x="203" y="222" type="curve" smooth="yes"/>
      <point x="294" y="222"/>
      <point x="356" y="262"/>
      <point x="362" y="336" type="curve"/>
      <point x="332" y="332" type="line"/>
    </contour>
  </outline>
</glyph>
<glyph name="maiHanaKat-thai" format="2">
  <unicode hex="0E31"/>
  <anchor x="-89" y="536" name="_top"/>
  <anchor x="-59" y="715" name="top"/>
  <outline>
    <contour>
      <point x="-216" y="635" type="curve" smooth="yes"/>
      <point x="42" y="635" type="line"/>
      <point x="42" y="703" type="line"/>
      <point x="-211" y="703" type="line" smooth="yes"/>
      <point x="-236" y="703"/>
      <point x="-246" y="718"/>
      <point x="-246" y="735" type="curve" smooth="yes"/>
      <point x="-246" y="746"/>
      <point x="-243" y="760"/>
      <point x="-240" y="766" type="curve"/>
      <point x="-315" y="779" type="line"/>
      <point x="-325" y="764"/>
      <point x="-331" y="738"/>
      <point x="-331" y="718" type="curve" smooth="yes"/>
      <point x="-331" y="675"/>
      <point x="-300" y="635"/>
    </contour>
  </outline>
</glyph>
<glyph name="saraAa-thai" format="2">
  <advance width="406"/>
  <unicode hex="0E32"/>
  <outline>
    <contour>
      <point x="236" y="0" type="line"/>
      <point x="325" y="0" type="line"/>
      <point x="325" y="402" type="line" smooth="yes"/>
      <point x="325" y="516"/>
      <point x="259" y="558"/>
      <point x="155" y="558" type="curve" smooth="yes"/>
      <point x="87" y="558"/>
      <point x="37" y="541"/>
      <point x="10" y="528" type="curve"/>
      <point x="10" y="448" type="line"/>
      <point x="49" y="470"/>
      <point x="90" y="484"/>
      <point x="138" y="484" type="curve" smooth="yes"/>
      <point x="209" y="484"/>
      <point x="236" y="454"/>
      <point x="236" y="389" type="curve" smooth="yes"/>
    </contour>
  </outline>
</glyph>
<glyph name="saraIi-thai" format="2">
  <unicode hex="0E35"/>
  <anchor x="-89" y="536" name="_top"/>
  <anchor x="-89" y="772" name="top"/>
  <outline>
    <contour>
      <point x="-514" y="635" type="line"/>
      <point x="-89" y="635" type="line"/>
      <point x="-89" y="706" type="line"/>
      <point x="-441" y="706" type="line"/>
      <point x="-514" y="674" type="line"/>
    </contour>
    <contour>
      <point x="-172" y="674" type="line"/>
      <point x="-88" y="674" type="line"/>
      <point x="-88" y="787" type="line"/>
      <point x="-172" y="787" type="line"/>
    </contour>
  </outline>
</glyph>
<glyph name="saraUe-thai" format="2">
  <unicode hex="0E36"/>
  <anchor x="-89" y="536" name="_top"/>
  <anchor x="-118" y="772" name="top"/>
  <outline>
    <contour>
      <point x="-514" y="635" type="line"/>
      <point x="-166" y="635" type="line" smooth="yes"/>
      <point x="-108" y="635"/>
      <point x="-76" y="670"/>
      <point x="-76" y="716" type="curve" smooth="yes"/>
      <point x="-76" y="765"/>
      <point x="-112" y="800"/>
      <point x="-171" y="800" type="curve" smooth="yes"/>
      <point x="-229" y="800"/>
      <point x="-263" y="766"/>
      <point x="-263" y="717" type="curve" smooth="yes"/>
      <point x="-263" y="709"/>
      <point x="-262" y="696"/>
      <point x="-255" y="681" type="curve"/>
      <point x="-242" y="706" type="line"/>
      <point x="-441" y="706" type="line"/>
      <point x="-514" y="674" type="line"/>
    </contour>
    <contour>
      <point x="-169" y="678" type="curve" smooth="yes"/>
      <point x="-198" y="678"/>
      <point x="-212" y="696"/>
      <point x="-212" y="718" type="curve" smooth="yes"/>
      <point x="-212" y="740"/>
      <point x="-197" y="756"/>
      <point x="-170" y="756" type="curve" smooth="yes"/>
      <point x="-143" y="756"/>
      <point x="-127" y="740"/>
      <point x="-127" y="717" type="curve" smooth="yes"/>
      <point x="-127" y="695"/>
      <point x="-142" y="678"/>
    </contour>
  </outline>
</glyph>
<glyph name="saraUee-thai" format="2">
  <unicode hex="0E37"/>
  <anchor x="-89" y="536" name="_top"/>
  <anchor x="-154" y="772" name="top"/>
  <outline>
    <contour>
      <point x="-514" y="635" type="line"/>
      <point x="-89" y="635" type="line"/>
      <point x="-89" y="706" type="line"/>
      <point x="-441" y="706" type="line"/>
      <point x="-514" y="674" type="line"/>
    </contour>
    <contour>
      <point x="-308" y="674" type="line"/>
      <point x="-234" y="674" type="line"/>
      <point x="-234" y="787" type="line"/>
      <point x="-308" y="787" type="line"/>
    </contour>
    <contour>
      <point x="-162" y="674" type="line"/>
      <point x="-89" y="674" type="line"/>
      <point x="-89" y="787" type="line"/>
      <point x="-162" y="787" type="line"/>
    </contour>
  </outline>
</glyph>
<glyph name="saraU-thai" format="2">
  <unicode hex="0E38"/>
  <anchor x="-89" y="0" name="_bottom"/>
  <anchor x="-89" y="-271" name="bottom"/>
  <outline>
    <contour>
      <point x="-169" y="-261" type="line"/>
      <point x="-90" y="-261" type="line"/>
      <point x="-90" y="-126" type="line" smooth="yes"/>
      <point x="-90" y="-88"/>
      <point x="-112" y="-64"/>
      <point x="-158" y="-64" type="curve" smooth="yes"/>
      <point x="-173" y="-64"/>
      <point x="-199" y="-67"/>
      <point x="-219" y="-74" type="curve"/>
      <point x="-212" y="-134" type="line"/>
      <point x="-205" y="-132"/>
      <point x="-198" y="-130"/>
      <point x="-191" y="-130" type="curve" smooth="yes"/>
      <point x="-176" y="-130"/>
      <point x="-169" y="-138"/>
      <point x="-169" y="-155" type="curve" smooth="yes"/>
    </contour>
  </outline>
</glyph>
<glyph name="phinthu-thai" format="2">
  <unicode hex="0E3A"/>
  <anchor x="-89" y="0" name="_bottom"/>
  <anchor x="-89" y="-186" name="bottom"/>
  <outline>
    <contour>
      <point x="-138" y="-196" type="curve" smooth="yes"/>
      <point x="-95" y="-196"/>
      <point x="-70" y="-173"/>
      <point x="-70" y="-131" type="curve" smooth="yes"/>
      <point x="-70" y="-89"/>
      <point x="-95" y="-66"/>
      <point x="-138" y="-66" type="curve" smooth="yes"/>
      <point x="-182" y="-66"/>
      <point x="-206" y="-89"/>
      <point x="-206" y="-131" type="curve" smooth="yes"/>
      <point x="-206" y="-173"/>
      <point x="-182" y="-196"/>
    </contour>
  </outline>
</glyph>
<glyph name="saraE-thai" format="2">
  <advance width="295"/>
  <unicode hex="0E40"/>
  <outline>
    <contour>
      <point x="205" y="-10" type="curve" smooth="yes"/>
      <point x="227" y="-10"/>
      <point x="251" y="-7"/>
      <point x="277" y="5" type="curve"/>
      <point x="265" y="70" type="line"/>
      <point x="253" y="66"/>
      <point x="239" y="63"/>
      <point x="227" y="63" type="curve" smooth="yes"/>
      <point x="197" y="63"/>
      <point x="185" y="75"/>
      <point x="185" y="106" type="curve" smooth="yes"/>
      <point x="185" y="548" type="line"/>
      <point x="96" y="548" type="line"/>
      <point x="96" y="95" type="line" smooth="yes"/>
      <point x="96" y="13"/>
      <point x="150" y="-10"/>
    </contour>
  </outline>
</glyph>
<glyph name="saraO-thai" format="2">
  <advance width="308"/>
  <unicode hex="0E42"/>
  <outline>
    <contour>
      <point x="110" y="448" type="line"/>
      <point x="199" y="448" type="line"/>
      <point x="199" y="627" type="line" smooth="yes"/>
      <point x="199" y="692"/>
      <point x="175" y="732"/>
      <point x="146" y="752" type="curve"/>
      <point x="147" y="756" type="line"/>
      <point x="350" y="756" type="line"/>
      <point x="350" y="826" type="line"/>
      <point x="83" y="826" type="line"/>
      <point x="9" y="794" type="line"/>
      <point x="9" y="756" type="line"/>
      <point x="68" y="756"/>
      <point x="110" y="724"/>
      <point x="110" y="644" type="curve" smooth="yes"/>
    </contour>
    <component base="saraE-thai" xOffset="14"/>
  </outline>
</glyph>
<glyph name="saraAiMaimuan-thai" format="2">
  <advance width="289"/>
  <unicode hex="0E43"/>
  <outline>
    <contour>
      <point x="196" y="-10" type="curve" smooth="yes"/>
      <point x="218" y="-10"/>
      <point x="242" y="-7"/>
      <point x="267" y="5" type="curve"/>
      <point x="255" y="70" type="line"/>
      <point x="244" y="66"/>
      <point x="231" y="63"/>
      <point x="216" y="63" type="curve" smooth="yes"/>
      <point x="188" y="63"/>
      <point x="175" y="75"/>
      <point x="175" y="106" type="curve" smooth="yes"/>
      <point x="175" y="484" type="line" smooth="yes"/>
      <point x="175" y="533"/>
      <point x="191" y="545"/>
      <point x="226" y="590" type="curve" smooth="yes"/>
      <point x="252" y="622"/>
      <point x="276" y="661"/>
      <point x="276" y="714" type="curve" smooth="yes"/>
      <point x="276" y="795"/>
      <point x="217" y="834"/>
      <point x="129" y="834" type="curve" smooth="yes"/>
      <point x="77" y="834"/>
      <point x="37" y="821"/>
      <point x="19" y="811" type="curve"/>
      <point x="19" y="735" type="line"/>
      <point x="41" y="747"/>
      <point x="76" y="762"/>
      <point x="118" y="762" type="curve" smooth="yes"/>
      <point x="166" y="762"/>
      <point x="189" y="742"/>
      <point x="189" y="704" type="curve" smooth="yes"/>
      <point x="189" y="672"/>
      <point x="173" y="650"/>
      <point x="140" y="609" type="curve" smooth="yes"/>
      <point x="98" y="557"/>
      <point x="86" y="541"/>
      <point x="86" y="486" type="curve" smooth="yes"/>
      <point x="86" y="95" type="line" smooth="yes"/>
      <point x="86" y="13"/>
      <point x="140" y="-10"/>
    </contour>
  </outline>
</glyph>
<glyph name="saraAiMaimalai-thai" format="2">
  <advance width="304"/>
  <unicode hex="0E44"/>
  <outline>
    <contour>
      <point x="110" y="448" type="line"/>
      <point x="199" y="448" type="line"/>
      <point x="199" y="644" type="line" smooth="yes"/>
      <point x="199" y="729"/>
      <point x="242" y="756"/>
      <point x="292" y="756" type="curve"/>
      <point x="292" y="826" type="line"/>
      <point x="10" y="826" type="line"/>
      <point x="-13" y="756" type="line"/>
      <point x="161" y="756" type="line"/>
      <point x="162" y="752" type="line"/>
      <point x="134" y="732"/>
      <point x="110" y="702"/>
      <point x="110" y="627" type="curve" smooth="yes"/>
    </contour>
    <component base="saraE-thai" xOffset="14"/>
  </outline>
</glyph>
<glyph name="lakkhangyao-thai" format="2">
  <advance width="406"/>
  <unicode hex="0E45"/>
  <outline>
    <contour>
      <point x="236" y="-200" type="line"/>
      <point x="325" y="-200" type="line"/>
      <point x="325" y="100" type="line"/>
      <point x="236" y="100" type="line"/>
    </contour>
    <component base="saraAa-thai"/>
  </outline>
</glyph>
<glyph name="maiyamok-thai" format="2">
  <advance width="595"/>
  <unicode hex="0E46"/>
  <outline>
    <contour>
      <point x="427" y="-201" type="line"/>
      <point x="514" y="-201" type="line"/>
      <point x="514" y="436" type="line" smooth="yes"/>
      <point x="514" y="529"/>
      <point x="463" y="558"/>
      <point x="399" y="558" type="curve" smooth="yes"/>
      <point x="353" y="558"/>
      <point x="318" y="542"/>
      <point x="302" y="506" type="curve"/>
      <point x="299" y="506" type="line"/>
      <point x="284" y="542"/>
      <point x="247" y="558"/>
      <point x="203" y="558" type="curve" smooth="yes"/>
      <point x="127" y="558"/>
      <point x="78" y="510"/>
      <point x="78" y="384" type="curve" smooth="yes"/>
      <point x="78" y="270"/>
      <point x="119" y="205"/>
      <point x="211" y="205" type="curve" smooth="yes"/>
      <point x="238" y="205"/>
      <point x="259" y="211"/>
      <point x="281" y="221" type="curve"/>
      <point x="264" y="287" type="line"/>
      <point x="250" y="282"/>
      <point x="236" y="279"/>
      <point x="224" y="279" type="curve" smooth="yes"/>
      <point x="184" y="279"/>
      <point x="164" y="304"/>
      <point x="164" y="386" type="curve" smooth="yes"/>
      <point x="164" y="458"/>
      <point x="180" y="485"/>
      <point x="214" y="485" type="curve" smooth="yes"/>
      <point x="243" y="485"/>
      <point x="260" y="468"/>
      <point x="260" y="426" type="curve" smooth="yes"/>
      <point x="260" y="383" type="line"/>
      <point x="335" y="383" type="line"/>
      <point x="335" y="426" type="line" smooth="yes"/>
      <point x="335" y="468"/>
      <point x="350" y="485"/>
      <point x="381" y="485" type="curve" smooth="yes"/>
      <point x="411" y="485"/>
      <point x="427" y="468"/>
      <point x="427" y="426" type="curve" smooth="yes"/>
    </contour>
  </outline>
</glyph>
<glyph name="maitaikhu-thai" format="2">
  <unicode hex="0E47"/>
  <anchor x="-89" y="536" name="_top"/>
  <anchor x="-196" y="845" name="top"/>
  <outline>
    <contour>
      <point x="-193" y="620" type="curve" smooth="yes"/>
      <point x="-136" y="620"/>
      <point x="-99" y="652"/>
      <point x="-99" y="718" type="curve" smooth="yes"/>
      <point x="-99" y="732" type="line"/>
      <point x="-164" y="732" type="line"/>
      <point x="-164" y="719" type="line" smooth="yes"/>
      <point x="-164" y="695"/>
      <point x="-177" y="679"/>
      <point x="-202" y="679" type="curve" smooth="yes"/>
      <point x="-232" y="679"/>
      <point x="-248" y="702"/>
      <point x="-253" y="732" type="curve"/>
      <point x="-272" y="732" type="line"/>
      <point x="-328" y="682" type="line"/>
      <point x="-363" y="682"/>
      <point x="-376" y="702"/>
      <point x="-376" y="730" type="curve" smooth="yes"/>
      <point x="-376" y="768"/>
      <point x="-351" y="786"/>
      <point x="-320" y="786" type="curve" smooth="yes"/>
      <point x="-100" y="786" type="line"/>
      <point x="-100" y="846" type="line"/>
      <point x="-333" y="846" type="line" smooth="yes"/>
      <point x="-393" y="846"/>
      <point x="-447" y="810"/>
      <point x="-447" y="734" type="curve" smooth="yes"/>
      <point x="-447" y="662"/>
      <point x="-397" y="623"/>
      <point x="-322" y="623" type="curve"/>
      <point x="-272" y="666" type="line"/>
      <point x="-257" y="635"/>
      <point x="-230" y="620"/>
    </contour>
  </outline>
</glyph>
<glyph name="maiEk-thai" format="2">
  <unicode hex="0E48"/>
  <anchor x="-89" y="536" name="_top"/>
  <anchor x="-89" y="845" name="top"/>
  <outline>
    <contour>
      <point x="-178" y="635" type="line"/>
      <point x="-90" y="635" type="line"/>
      <point x="-90" y="846" type="line"/>
      <point x="-178" y="846" type="line"/>
    </contour>
  </outline>
</glyph>
<glyph name="maiTho-thai" format="2">
  <unicode hex="0E49"/>
  <anchor x="-89" y="536" name="_top"/>
  <anchor x="-192" y="845" name="top"/>
  <outline>
    <contour>
      <point x="-368" y="635" type="line"/>
      <point x="-58" y="635" type="line"/>
      <point x="-58" y="705" type="line"/>
      <point x="-257" y="705" type="line"/>
      <point x="-247" y="681" type="line"/>
      <point x="-222" y="697"/>
      <point x="-199" y="725"/>
      <point x="-199" y="762" type="curve" smooth="yes"/>
      <point x="-199" y="807"/>
      <point x="-231" y="840"/>
      <point x="-284" y="840" type="curve" smooth="yes"/>
      <point x="-304" y="840"/>
      <point x="-341" y="835"/>
      <point x="-368" y="814" type="curve"/>
      <point x="-348" y="759" type="line"/>
      <point x="-338" y="763"/>
      <point x="-323" y="770"/>
      <point x="-309" y="770" type="curve" smooth="yes"/>
      <point x="-288" y="770"/>
      <point x="-278" y="757"/>
      <point x="-278" y="741" type="curve" smooth="yes"/>
      <point x="-278" y="704"/>
      <point x="-328" y="687"/>
      <point x="-368" y="679" type="curve"/>
    </contour>
  </outline>
</glyph>
<glyph name="maiTri-thai" format="2">
  <unicode hex="0E4A"/>
  <anchor x="-89" y="536" name="_top"/>
  <anchor x="-200" y="845" name="top"/>
  <outline>
    <contour>
      <point x="-318" y="630" type="curve" smooth="yes"/>
      <point x="-297" y="630"/>
      <point x="-279" y="634"/>
      <point x="-269" y="640" type="curve"/>
      <point x="-282" y="687" type="line"/>
      <point x="-290" y="683"/>
      <point x="-299" y="682"/>
      <point x="-305" y="682" type="curve" smooth="yes"/>
      <point x="-330" y="682"/>
      <point x="-347" y="699"/>
      <point x="-347" y="731" type="curve" smooth="yes"/>
      <point x="-347" y="764"/>
      <point x="-329" y="773"/>
      <point x="-316" y="776" type="curve"/>
      <point x="-268" y="747" type="line"/>
      <point x="-262" y="747" type="line"/>
      <point x="-214" y="776" type="line"/>
      <point x="-201" y="774"/>
      <point x="-180" y="762"/>
      <point x="-180" y="730" type="curve" smooth="yes"/>
      <point x="-180" y="700"/>
      <point x="-199" y="685"/>
      <point x="-217" y="677" type="curve"/>
      <point x="-217" y="635" type="line"/>
      <point x="-37" y="635" type="line"/>
      <point x="-37" y="700" type="line"/>
      <point x="-140" y="700" type="line"/>
      <point x="-136" y="686" type="line"/>
      <point x="-118" y="701"/>
      <point x="-108" y="721"/>
      <point x="-108" y="747" type="curve" smooth="yes"/>
      <point x="-108" y="793"/>
      <point x="-135" y="831"/>
      <point x="-210" y="838" type="curve"/>
      <point x="-265" y="802" type="line"/>
      <point x="-321" y="838" type="line"/>
      <point x="-384" y="831"/>
      <point x="-421" y="796"/>
      <point x="-421" y="732" type="curve" smooth="yes"/>
      <point x="-421" y="669"/>
      <point x="-384" y="630"/>
    </contour>
  </outline>
</glyph>
<glyph name="maiChattawa-thai" format="2">
  <unicode hex="0E4B"/>
  <anchor x="-89" y="536" name="_top"/>
  <anchor x="-160" y="845" name="top"/>
  <outline>
    <contour>
      <point x="-240" y="635" type="line"/>
      <point x="-164" y="635" type="line"/>
      <point x="-164" y="846" type="line"/>
      <point x="-240" y="846" type="line"/>
    </contour>
    <contour>
      <point x="-316" y="707" type="line"/>
      <point x="-88" y="707" type="line"/>
      <point x="-88" y="771" type="line"/>
      <point x="-316" y="771" type="line"/>
    </contour>
  </outline>
</glyph>
<glyph name="thanthakhat-thai" format="2">
  <unicode hex="0E4C"/>
  <anchor x="-89" y="536" name="_top"/>
  <anchor x="-108" y="771" name="top"/>
  <outline>
    <contour>
      <point x="-253" y="606" type="curve"/>
      <point x="-176" y="618" type="line"/>
      <point x="-181" y="628"/>
      <point x="-185" y="639"/>
      <point x="-185" y="649" type="curve" smooth="yes"/>
      <point x="-185" y="673"/>
      <point x="-168" y="682"/>
      <point x="-141" y="682" type="curve" smooth="yes"/>
      <point x="-27" y="682" type="line"/>
      <point x="-27" y="751" type="line"/>
      <point x="-164" y="751" type="line" smooth="yes"/>
      <point x="-247" y="751"/>
      <point x="-269" y="711"/>
      <point x="-269" y="669" type="curve" smooth="yes"/>
      <point x="-269" y="646"/>
      <point x="-262" y="620"/>
    </contour>
  </outline>
</glyph>
<glyph name="nikhahit-thai" format="2">
  <unicode hex="0E4D"/>
  <anchor x="-89" y="536" name="_top"/>
  <anchor x="-118" y="772" name="top"/>
  <outline>
    <contour>
      <point x="-160" y="611" type="curve" smooth="yes"/>
      <point x="-93" y="611"/>
      <point x="-50" y="643"/>
      <point x="-50" y="701" type="curve" smooth="yes"/>
      <point x="-50" y="759"/>
      <point x="-93" y="791"/>
      <point x="-160" y="791" type="curve" smooth="yes"/>
      <point x="-227" y="791"/>
      <point x="-268" y="759"/>
      <point x="-268" y="701" type="curve" smooth="yes"/>
      <point x="-268" y="643"/>
      <point x="-227" y="611"/>
    </contour>
    <contour>
      <point x="-160" y="658" type="curve" smooth="yes"/>
      <point x="-191" y="658"/>
      <point x="-208" y="675"/>
      <point x="-208" y="701" type="curve" smooth="yes"/>
      <point x="-208" y="727"/>
      <point x="-191" y="744"/>
      <point x="-160" y="744" type="curve" smooth="yes"/>
      <point x="-128" y="744"/>
      <point x="-111" y="727"/>
      <point x="-111" y="701" type="curve" smooth="yes"/>
      <point x="-111" y="675"/>
      <point x="-128" y="658"/>
    </contour>
  </outline>
</glyph>
<glyph name="yamakkan-thai" format="2">
  <unicode hex="0E4E"/>
  <anchor x="-89" y="536" name="_top"/>
  <anchor x="-105" y="766" name="top"/>
  <outline>
    <contour>
      <point x="-255" y="606" type="curve"/>
      <point x="-200" y="616" type="line"/>
      <point x="-204" y="625"/>
      <point x="-208" y="634"/>
      <point x="-208" y="643" type="curve" smooth="yes"/>
      <point x="-208" y="659"/>
      <point x="-197" y="674"/>
      <point x="-172" y="674" type="curve" smooth="yes"/>
      <point x="-165" y="674"/>
      <point x="-150" y="673"/>
      <point x="-137" y="662" type="curve"/>
      <point x="-109" y="682" type="line"/>
      <point x="-113" y="690"/>
      <point x="-116" y="700"/>
      <point x="-116" y="709" type="curve" smooth="yes"/>
      <point x="-116" y="730"/>
      <point x="-101" y="744"/>
      <point x="-71" y="744" type="curve" smooth="yes"/>
      <point x="-63" y="744"/>
      <point x="-50" y="743"/>
      <point x="-36" y="739" type="curve"/>
      <point x="-36" y="791" type="line"/>
      <point x="-53" y="798"/>
      <point x="-75" y="801"/>
      <point x="-90" y="801" type="curve" smooth="yes"/>
      <point x="-131" y="801"/>
      <point x="-169" y="781"/>
      <point x="-169" y="740" type="curve" smooth="yes"/>
      <point x="-169" y="723"/>
      <point x="-163" y="708"/>
      <point x="-156" y="697" type="curve"/>
      <point x="-143" y="706" type="line"/>
      <point x="-156" y="717"/>
      <point x="-168" y="727"/>
      <point x="-195" y="727" type="curve" smooth="yes"/>
      <point x="-236" y="727"/>
      <point x="-270" y="704"/>
      <point x="-270" y="659" type="curve" smooth="yes"/>
      <point x="-270" y="640"/>
      <point x="-263" y="618"/>
    </contour>
  </outline>
</glyph>
<glyph name="zero-thai" format="2">
  <advance width="570"/>
  <unicode hex="0E50"/>
  <outline>
    <contour>
      <point x="285" y="-10" type="curve" smooth="yes"/>
      <point x="432" y="-10"/>
      <point x="512" y="80"/>
      <point x="512" y="228" type="curve" smooth="yes"/>
      <point x="512" y="382"/>
      <point x="432" y="465"/>
      <point x="285" y="465" type="curve" smooth="yes"/>
      <point x="138" y="465"/>
      <point x="58" y="382"/>
      <point x="58" y="228" type="curve" smooth="yes"/>
      <point x="58" y="80"/>
      <point x="138" y="-10"/>
    </contour>
    <contour>
      <point x="285" y="63" type="curve" smooth="yes"/>
      <point x="196" y="63"/>
      <point x="148" y="121"/>
      <point x="148" y="228" type="curve" smooth="yes"/>
      <point x="148" y="342"/>
      <point x="196" y="392"/>
      <point x="285" y="392" type="curve" smooth="yes"/>
      <point x="373" y="392"/>
      <point x="422" y="342"/>
      <point x="422" y="228" type="curve" smooth="yes"/>
      <point x="422" y="121"/>
      <point x="373" y="63"/>
    </contour>
  </outline>
</glyph>
<glyph name="one-thai" format="2">
  <advance width="545"/>
  <unicode hex="0E51"/>
  <outline>
    <contour>
      <point x="277" y="-10" type="curve" smooth="yes"/>
      <point x="426" y="-10"/>
      <point x="488" y="97"/>
      <point x="488" y="237" type="curve" smooth="yes"/>
      <point x="488" y="380"/>
      <point x="422" y="465"/>
      <point x="264" y="465" type="curve" smooth="yes"/>
      <point x="130" y="465"/>
      <point x="53" y="404"/>
      <point x="53" y="285" type="curve" smooth="yes"/>
      <point x="53" y="190"/>
      <point x="101" y="121"/>
      <point x="193" y="121" type="curve" smooth="yes"/>
      <point x="216" y="121"/>
      <point x="237" y="126"/>
      <point x="251" y="135" type="curve"/>
      <point x="237" y="202" type="line"/>
      <point x="228" y="199"/>
      <point x="216" y="198"/>
      <point x="209" y="198" type="curve" smooth="yes"/>
      <point x="168" y="198"/>
      <point x="139" y="230"/>
      <point x="139" y="286" type="curve" smooth="yes"/>
      <point x="139" y="356"/>
      <point x="184" y="392"/>
      <point x="264" y="392" type="curve" smooth="yes"/>
      <point x="354" y="392"/>
      <point x="398" y="348"/>
      <point x="398" y="234" type="curve" smooth="yes"/>
      <point x="398" y="123"/>
      <point x="358" y="62"/>
      <point x="264" y="62" type="curve" smooth="yes"/>
      <point x="238" y="62"/>
      <point x="211" y="67"/>
      <point x="198" y="72" type="curve"/>
      <point x="198" y="1" type="line"/>
      <point x="215" y="-5"/>
      <point x="246" y="-10"/>
    </contour>
  </outline>
</glyph>
<glyph name="two-thai" format="2">
  <advance width="613"/>
  <unicode hex="0E52"/>
  <outline>
    <contour>
      <point x="313" y="-10" type="curve" smooth="yes"/>
      <point x="490" y="-10"/>
      <point x="555" y="75"/>
      <point x="555" y="218" type="curve" smooth="yes"/>
      <point x="555" y="346" type="line" smooth="yes"/>
      <point x="555" y="436"/>
      <point x="505" y="461"/>
      <point x="457" y="461" type="curve" smooth="yes"/>
      <point x="422" y="461"/>
      <point x="394" y="447"/>
      <point x="378" y="410" type="curve"/>
      <point x="375" y="410" type="line"/>
      <point x="361" y="447"/>
      <point x="330" y="461"/>
      <point x="295" y="461" type="curve" smooth="yes"/>
      <point x="232" y="461"/>
      <point x="197" y="415"/>
      <point x="197" y="333" type="curve" smooth="yes"/>
      <point x="197" y="258"/>
      <point x="227" y="195"/>
      <point x="313" y="195" type="curve" smooth="yes"/>
      <point x="334" y="195"/>
      <point x="350" y="200"/>
      <point x="368" y="210" type="curve"/>
      <point x="352" y="271" type="line"/>
      <point x="342" y="266"/>
      <point x="330" y="263"/>
      <point x="322" y="263" type="curve" smooth="yes"/>
      <point x="286" y="263"/>
      <point x="279" y="292"/>
      <point x="279" y="328" type="curve" smooth="yes"/>
      <point x="279" y="373"/>
      <point x="289" y="393"/>
      <point x="311" y="393" type="curve" smooth="yes"/>
      <point x="338" y="393"/>
      <point x="346" y="373"/>
      <point x="348" y="337" type="curve"/>
      <point x="402" y="337" type="line"/>
      <point x="404" y="371"/>
      <point x="410" y="393"/>
      <point x="437" y="393" type="curve" smooth="yes"/>
      <point x="457" y="393"/>
      <point x="468" y="378"/>
      <point x="468" y="338" type="curve" smooth="yes"/>
      <point x="468" y="224" type="line" smooth="yes"/>
      <point x="468" y="136"/>
      <point x="445" y="63"/>
      <point x="313" y="63" type="curve" smooth="yes"/>
      <point x="182" y="63"/>
      <point x="145" y="136"/>
      <point x="145" y="223" type="curve" smooth="yes"/>
      <point x="145" y="584" type="line"/>
      <point x="59" y="584" type="line"/>
      <point x="59" y="218" type="line" smooth="yes"/>
      <point x="59" y="75"/>
      <point x="136" y="-10"/>
    </contour>
  </outline>
</glyph>
<glyph name="four-thai" format="2">
  <advance width="539"/>
  <unicode hex="0E54"/>
  <outline>
    <contour>
      <point x="259" y="0" type="curve" smooth="yes"/>
      <point x="489" y="0" type="line"/>
      <point x="489" y="69" type="line"/>
      <point x="444" y="69" type="line" smooth="yes"/>
      <point x="398" y="69"/>
      <point x="375" y="98"/>
      <point x="375" y="151" type="curve" smooth="yes"/>
      <point x="375" y="193"/>
      <point x="390" y="219"/>
      <point x="419" y="219" type="curve" smooth="yes"/>
      <point x="425" y="219"/>
      <point x="435" y="218"/>
      <point x="442" y="215" type="curve"/>
      <point x="466" y="274" type="line"/>
      <point x="451" y="282"/>
      <point x="427" y="287"/>
      <point x="404" y="287" type="curve" smooth="yes"/>
      <point x="336" y="287"/>
      <point x="295" y="242"/>
      <point x="295" y="156" type="curve" smooth="yes"/>
      <point x="295" y="108"/>
      <point x="309" y="77"/>
      <point x="338" y="55" type="curve"/>
      <point x="356" y="72" type="line"/>
      <point x="265" y="72" type="line" smooth="yes"/>
      <point x="181" y="72"/>
      <point x="146" y="115"/>
      <point x="146" y="222" type="curve" smooth="yes"/>
      <point x="146" y="325"/>
      <point x="178" y="387"/>
      <point x="268" y="387" type="curve" smooth="yes"/>
      <point x="317" y="387" type="line" smooth="yes"/>
      <point x="432" y="387"/>
      <point x="475" y="440"/>
      <point x="475" y="544" type="curve" smooth="yes"/>
      <point x="475" y="584" type="line"/>
      <point x="391" y="584" type="line"/>
      <point x="391" y="550" type="line" smooth="yes"/>
      <point x="391" y="481"/>
      <point x="377" y="460"/>
      <point x="295" y="460" type="curve" smooth="yes"/>
      <point x="255" y="460" type="line" smooth="yes"/>
      <point x="107" y="460"/>
      <point x="58" y="349"/>
      <point x="58" y="222" type="curve" smooth="yes"/>
      <point x="58" y="68"/>
      <point x="125" y="0"/>
    </contour>
  </outline>
</glyph>
<glyph name="five-thai" format="2">
  <advance width="540"/>
  <unicode hex="0E55"/>
  <outline>
    <contour>
      <point x="260" y="0" type="curve" smooth="yes"/>
      <point x="490" y="0" type="line"/>
      <point x="490" y="69" type="line"/>
      <point x="445" y="69" type="line" smooth="yes"/>
      <point x="399" y="69"/>
      <point x="375" y="98"/>
      <point x="375" y="150" type="curve" smooth="yes"/>
      <point x="375" y="192"/>
      <point x="391" y="218"/>
      <point x="419" y="218" type="curve" smooth="yes"/>
      <point x="425" y="218"/>
      <point x="436" y="217"/>
      <point x="443" y="214" type="curve"/>
      <point x="467" y="274" type="line"/>
      <point x="451" y="281"/>
      <point x="428" y="286"/>
      <point x="405" y="286" type="curve" smooth="yes"/>
      <point x="337" y="286"/>
      <point x="296" y="241"/>
      <point x="296" y="156" type="curve" smooth="yes"/>
      <point x="296" y="109"/>
      <point x="309" y="78"/>
      <point x="340" y="48" type="curve"/>
      <point x="358" y="72" type="line"/>
      <point x="265" y="72" type="line" smooth="yes"/>
      <point x="181" y="72"/>
      <point x="146" y="115"/>
      <point x="146" y="222" type="curve" smooth="yes"/>
      <point x="146" y="325"/>
      <point x="178" y="387"/>
      <point x="272" y="387" type="curve" smooth="yes"/>
      <point x="318" y="387" type="line" smooth="yes"/>
      <point x="433" y="387"/>
      <point x="477" y="440"/>
      <point x="477" y="544" type="curve" smooth="yes"/>
      <point x="477" y="584" type="line"/>
      <point x="398" y="584" type="line"/>
      <point x="398" y="552" type="line" smooth="yes"/>
      <point x="398" y="478"/>
      <point x="385" y="458"/>
      <point x="299" y="458" type="curve"/>
      <point x="307" y="441" type="line"/>
      <point x="327" y="447"/>
      <point x="351" y="471"/>
      <point x="351" y="511" type="curve" smooth="yes"/>
      <point x="351" y="557"/>
      <point x="319" y="593"/>
      <point x="259" y="593" type="curve" smooth="yes"/>
      <point x="201" y="593"/>
      <point x="167" y="559"/>
      <point x="167" y="511" type="curve" smooth="yes"/>
      <point x="167" y="463"/>
      <point x="201" y="435"/>
      <point x="230" y="437" type="curve"/>
      <point x="226" y="456" type="line"/>
      <point x="119" y="442"/>
      <point x="58" y="373"/>
      <point x="58" y="226" type="curve" smooth="yes"/>
      <point x="58" y="70"/>
      <point x="122" y="0"/>
    </contour>
    <contour>
      <point x="259" y="468" type="curve" smooth="yes"/>
      <point x="232" y="468"/>
      <point x="218" y="486"/>
      <point x="218" y="508" type="curve" smooth="yes"/>
      <point x="218" y="529"/>
      <point x="232" y="547"/>
      <point x="259" y="547" type="curve" smooth="yes"/>
      <point x="287" y="547"/>
      <point x="302" y="529"/>
      <point x="302" y="508" type="curve" smooth="yes"/>
      <point x="302" y="486"/>
      <point x="287" y="468"/>
    </contour>
  </outline>
</glyph>
<glyph name="six-thai" format="2">
  <advance width="520"/>
  <unicode hex="0E56"/>
  <outline>
    <contour>
      <point x="247" y="-10" type="curve" smooth="yes"/>
      <point x="390" y="-10"/>
      <point x="462" y="71"/>
      <point x="462" y="226" type="curve" smooth="yes"/>
      <point x="462" y="370"/>
      <point x="401" y="465"/>
      <point x="265" y="465" type="curve" smooth="yes"/>
      <point x="201" y="465"/>
      <point x="148" y="443"/>
      <point x="125" y="387" type="curve"/>
      <point x="153" y="387" type="line"/>
      <point x="97" y="584" type="line"/>
      <point x="15" y="584" type="line"/>
      <point x="89" y="315" type="line"/>
      <point x="148" y="315" type="line"/>
      <point x="152" y="367"/>
      <point x="194" y="393"/>
      <point x="253" y="393" type="curve" smooth="yes"/>
      <point x="333" y="393"/>
      <point x="373" y="347"/>
      <point x="373" y="229" type="curve" smooth="yes"/>
      <point x="373" y="118"/>
      <point x="338" y="62"/>
      <point x="244" y="62" type="curve" smooth="yes"/>
      <point x="184" y="62"/>
      <point x="155" y="86"/>
      <point x="125" y="119" type="curve"/>
      <point x="70" y="65" type="line"/>
      <point x="112" y="11"/>
      <point x="173" y="-10"/>
    </contour>
  </outline>
</glyph>
<glyph name="nine-thai" format="2">
  <advance width="504"/>
  <unicode hex="0E59"/>
  <outline>
    <contour>
      <point x="212" y="-10" type="curve" smooth="yes"/>
      <point x="234" y="-10"/>
      <point x="261" y="-6"/>
      <point x="278" y="1" type="curve"/>
      <point x="268" y="68" type="line"/>
      <point x="255" y="63"/>
      <point x="240" y="61"/>
      <point x="230" y="61" type="curve" smooth="yes"/>
      <point x="170" y="61"/>
      <point x="146" y="124"/>
      <point x="146" y="240" type="curve" smooth="yes"/>
      <point x="146" y="362"/>
      <point x="173" y="393"/>
      <point x="207" y="393" type="curve" smooth="yes"/>
      <point x="232" y="393"/>
      <point x="241" y="377"/>
      <point x="252" y="349" type="curve" smooth="yes"/>
      <point x="394" y="0" type="line"/>
      <point x="485" y="0" type="line"/>
      <point x="344" y="332" type="line" smooth="yes"/>
      <point x="324" y="379"/>
      <point x="346" y="402"/>
      <point x="385" y="402" type="curve" smooth="yes"/>
      <point x="400" y="402" type="line" smooth="yes"/>
      <point x="467" y="402"/>
      <point x="495" y="443"/>
      <point x="495" y="513" type="curve" smooth="yes"/>
      <point x="495" y="584" type="line"/>
      <point x="413" y="584" type="line"/>
      <point x="413" y="517" type="line" smooth="yes"/>
      <point x="413" y="478"/>
      <point x="400" y="465"/>
      <point x="372" y="465" type="curve" smooth="yes"/>
      <point x="365" y="465" type="line" smooth="yes"/>
      <point x="318" y="465"/>
      <point x="292" y="441"/>
      <point x="281" y="398" type="curve"/>
      <point x="307" y="397" type="line"/>
      <point x="282" y="446"/>
      <point x="261" y="465"/>
      <point x="208" y="465" type="curve" smooth="yes"/>
      <point x="111" y="465"/>
      <point x="58" y="402"/>
      <point x="58" y="238" type="curve" smooth="yes"/>
      <point x="58" y="92"/>
      <point x="100" y="-10"/>
    </contour>
  </outline>
</glyph>
<glyph name="angkhankhu-thai" format="2">
  <advance width="767"/>
  <unicode hex="0E5A"/>
  <outline>
    <contour>
      <point x="332" y="-1" type="line"/>
      <point x="421" y="-1" type="line"/>
      <point x="421" y="548" type="line"/>
      <point x="332" y="548" type="line"/>
      <point x="332" y="418" type="line" smooth="yes"/>
      <point x="332" y="335"/>
      <point x="297" y="294"/>
      <point x="218" y="294" type="curve" smooth="yes"/>
      <point x="144" y="294"/>
      <point x="107" y="330"/>
      <point x="107" y="395" type="curve" smooth="yes"/>
      <point x="107" y="457"/>
      <point x="142" y="486"/>
      <point x="189" y="486" type="curve" smooth="yes"/>
      <point x="196" y="486"/>
      <point x="209" y="485"/>
      <point x="227" y="479" type="curve"/>
      <point x="240" y="546" type="line"/>
      <point x="214" y="556"/>
      <point x="190" y="558"/>
      <point x="172" y="558" type="curve" smooth="yes"/>
      <point x="76" y="558"/>
      <point x="18" y="497"/>
      <point x="18" y="399" type="curve" smooth="yes"/>
      <point x="18" y="282"/>
      <point x="94" y="222"/>
      <point x="205" y="222" type="curve" smooth="yes"/>
      <point x="289" y="222"/>
      <point x="356" y="259"/>
      <point x="362" y="353" type="curve"/>
      <point x="332" y="352" type="line"/>
    </contour>
    <contour>
      <point x="580" y="-1" type="line"/>
      <point x="669" y="-1" type="line"/>
      <point x="669" y="548" type="line"/>
      <point x="580" y="548" type="line"/>
      <point x="580" y="429" type="line" smooth="yes"/>
      <point x="580" y="347"/>
      <point x="538" y="305"/>
      <point x="465" y="305" type="curve" smooth="yes"/>
      <point x="430" y="305"/>
      <point x="414" y="314"/>
      <point x="400" y="323" type="curve"/>
      <point x="376" y="265" type="line"/>
      <point x="402" y="244"/>
      <point x="432" y="231"/>
      <point x="470" y="231" type="curve" smooth="yes"/>
      <point x="539" y="231"/>
      <point x="605" y="272"/>
      <point x="610" y="363" type="curve"/>
      <point x="580" y="363" type="line"/>
    </contour>
  </outline>
</glyph>
<glyph name="khomut-thai" format="2">
  <advance width="872"/>
  <unicode hex="0E5B"/>
  <outline>
    <contour>
      <point x="236" y="70" type="curve" smooth="yes"/>
      <point x="399" y="70"/>
      <point x="434" y="201"/>
      <point x="441" y="268" type="curve"/>
      <point x="416" y="268" type="line"/>
      <point x="476" y="123" type="line"/>
      <point x="525" y="123" type="line"/>
      <point x="566" y="274" type="line"/>
      <point x="544" y="274" type="line"/>
      <point x="599" y="133" type="line"/>
      <point x="644" y="133" type="line"/>
      <point x="678" y="260" type="line"/>
      <point x="652" y="260" type="line"/>
      <point x="669" y="183"/>
      <point x="711" y="142"/>
      <point x="768" y="142" type="curve" smooth="yes"/>
      <point x="788" y="142"/>
      <point x="802" y="147"/>
      <point x="813" y="153" type="curve"/>
      <point x="813" y="213" type="line"/>
      <point x="805" y="209"/>
      <point x="794" y="206"/>
      <point x="778" y="206" type="curve" smooth="yes"/>
      <point x="720" y="206"/>
      <point x="717" y="245"/>
      <point x="697" y="296" type="curve" smooth="yes"/>
      <point x="691" y="312" type="line"/>
      <point x="648" y="312" type="line"/>
      <point x="607" y="187" type="line"/>
      <point x="630" y="188" type="line"/>
      <point x="579" y="321" type="line"/>
      <point x="529" y="321" type="line"/>
      <point x="489" y="179" type="line"/>
      <point x="512" y="179" type="line"/>
      <point x="446" y="329" type="line"/>
      <point x="387" y="329" type="line"/>
      <point x="388" y="225"/>
      <point x="345" y="141"/>
      <point x="243" y="141" type="curve" smooth="yes"/>
      <point x="180" y="141"/>
      <point x="134" y="173"/>
      <point x="134" y="260" type="curve" smooth="yes"/>
      <point x="134" y="307"/>
      <point x="151" y="345"/>
      <point x="196" y="345" type="curve" smooth="yes"/>
      <point x="228" y="345"/>
      <point x="255" y="329"/>
      <point x="255" y="291" type="curve" smooth="yes"/>
      <point x="255" y="272"/>
      <point x="248" y="254"/>
      <point x="241" y="245" type="curve"/>
      <point x="304" y="214" type="line"/>
      <point x="318" y="233"/>
      <point x="331" y="266"/>
      <point x="331" y="301" type="curve" smooth="yes"/>
      <point x="331" y="373"/>
      <point x="281" y="414"/>
      <point x="197" y="414" type="curve" smooth="yes"/>
      <point x="90" y="414"/>
      <point x="49" y="341"/>
      <point x="49" y="255" type="curve" smooth="yes"/>
      <point x="49" y="139"/>
      <point x="118" y="70"/>
    </contour>
  </outline>
</glyph>
<glyph name="loChula-thai.short" format="2">
  <advance width="649"/>
  <anchor x="529" y="0" name="bottom"/>
  <anchor x="552" y="536" name="top"/>
  <outline>
    <contour>
      <point x="115" y="0" type="line"/>
      <point x="203" y="0" type="line"/>
      <point x="279" y="199" type="line" smooth="yes"/>
      <point x="298" y="249"/>
      <point x="311" y="296"/>
      <point x="321" y="339" type="curve"/>
      <point x="325" y="339" type="line"/>
      <point x="335" y="296"/>
      <point x="348" y="249"/>
      <point x="367" y="199" type="curve" smooth="yes"/>
      <point x="443" y="0" type="line"/>
      <point x="530" y="0" type="line"/>
      <point x="593" y="370" type="line" smooth="yes"/>
      <point x="601" y="418"/>
      <point x="591" y="460"/>
      <point x="543" y="475" type="curve"/>
      <point x="543" y="479" type="line"/>
      <point x="609" y="489"/>
      <point x="632" y="533"/>
      <point x="631" y="584" type="curve"/>
      <point x="542" y="584" type="line"/>
      <point x="538" y="545"/>
      <point x="532" y="522"/>
      <point x="482" y="522" type="curve" smooth="yes"/>
      <point x="390" y="522" type="line"/>
      <point x="390" y="458" type="line"/>
      <point x="446" y="458" type="line" smooth="yes"/>
      <point x="509" y="458"/>
      <point x="520" y="422"/>
      <point x="511" y="365" type="curve" smooth="yes"/>
      <point x="502" y="305" type="line" smooth="yes"/>
      <point x="493" y="246"/>
      <point x="484" y="195"/>
      <point x="476" y="105" type="curve"/>
      <point x="471" y="105" type="line"/>
      <point x="448" y="182"/>
      <point x="420" y="251"/>
      <point x="405" y="289" type="curve" smooth="yes"/>
      <point x="355" y="414" type="line"/>
      <point x="287" y="414" type="line"/>
      <point x="241" y="289" type="line" smooth="yes"/>
      <point x="211" y="208"/>
      <point x="193" y="156"/>
      <point x="182" y="115" type="curve"/>
      <point x="178" y="115" type="line"/>
      <point x="174" y="188"/>
      <point x="170" y="238"/>
      <point x="161" y="309" type="curve" smooth="yes"/>
      <point x="131" y="548" type="line"/>
      <point x="41" y="548" type="line"/>
    </contour>
  </outline>
</glyph>
<glyph name="lu-thai.short" format="2">
  <advance width="603"/>
  <anchor x="522" y="-162" name="bottom"/>
  <anchor x="513" y="541" name="top"/>
  <outline>
    <contour>
      <point x="433" y="-174" type="line"/>
      <point x="522" y="-174" type="line"/>
      <point x="522" y="100" type="line"/>
      <point x="433" y="100" type="line"/>
    </contour>
    <component base="phoSamphao-thai"/>
  </outline>
</glyph>
<glyph name="lu_lakkhangyao-thai" format="2">
  <advance width="943"/>
  <outline>
    <contour>
      <point x="433" y="-201" type="line"/>
      <point x="522" y="-201" type="line"/>
      <point x="522" y="355" type="line" smooth="yes"/>
      <point x="522" y="450"/>
      <point x="579" y="484"/>
      <point x="648" y="484" type="curve" smooth="yes"/>
      <point x="717" y="484"/>
      <point x="773" y="452"/>
      <point x="773" y="359" type="curve" smooth="yes"/>
      <point x="773" y="-201" type="line"/>
      <point x="862" y="-201" type="line"/>
      <point x="862" y="369" type="line" smooth="yes"/>
      <point x="862" y="490"/>
      <point x="792" y="558"/>
      <point x="667" y="558" type="curve" smooth="yes"/>
      <point x="577" y="558"/>
      <point x="512" y="524"/>
      <point x="486" y="466" type="curve"/>
      <point x="483" y="466" type="line"/>
      <point x="451" y="524"/>
      <point x="391" y="558"/>
      <point x="295" y="558" type="curve" smooth="yes"/>
      <point x="152" y="558"/>
      <point x="67" y="481"/>
      <point x="67" y="399" type="curve" smooth="yes"/>
      <point x="67" y="366" type="line"/>
      <point x="182" y="324" type="line"/>
      <point x="181" y="321" type="line"/>
      <point x="124" y="307"/>
      <point x="92" y="276"/>
      <point x="92" y="194" type="curve" smooth="yes"/>
      <point x="92" y="101" type="line" smooth="yes"/>
      <point x="92" y="73"/>
      <point x="83" y="61"/>
      <point x="62" y="61" type="curve" smooth="yes"/>
      <point x="51" y="61"/>
      <point x="38" y="64"/>
      <point x="29" y="67" type="curve"/>
      <point x="19" y="5" type="line"/>
      <point x="42" y="-6"/>
      <point x="64" y="-10"/>
      <point x="88" y="-10" type="curve" smooth="yes"/>
      <point x="140" y="-10"/>
      <point x="181" y="12"/>
      <point x="181" y="94" type="curve" smooth="yes"/>
      <point x="181" y="191" type="line" smooth="yes"/>
      <point x="181" y="262"/>
      <point x="214" y="292"/>
      <point x="264" y="292" type="curve"/>
      <point x="272" y="340" type="line"/>
      <point x="158" y="394" type="line"/>
      <point x="158" y="446"/>
      <point x="209" y="484"/>
      <point x="292" y="484" type="curve" smooth="yes"/>
      <point x="370" y="484"/>
      <point x="433" y="449"/>
      <point x="433" y="351" type="curve" smooth="yes"/>
    </contour>
  </outline>
</glyph>
<glyph name="maiChattawa-thai.narrow" format="2">
  <anchor x="-227" y="536" name="_top"/>
  <anchor x="-304" y="844" name="top"/>
  <outline>
    <contour>
      <point x="-383" y="635" type="line"/>
      <point x="-308" y="635" type="line"/>
      <point x="-308" y="846" type="line"/>
      <point x="-383" y="846" type="line"/>
    </contour>
    <contour>
      <point x="-459" y="707" type="line"/>
      <point x="-231" y="707" type="line"/>
      <point x="-231" y="771" type="line"/>
      <point x="-459" y="771" type="line"/>
    </contour>
  </outline>
</glyph>
<glyph name="maiChattawa-thai.small" format="2">
  <anchor x="-89" y="772" name="_top"/>
  <anchor x="-89" y="1009" name="top"/>
  <outline>
    <contour>
      <point x="-168" y="846" type="line"/>
      <point x="-93" y="846" type="line"/>
      <point x="-93" y="1009" type="line"/>
      <point x="-168" y="1009" type="line"/>
    </contour>
    <contour>
      <point x="-226" y="897" type="line"/>
      <point x="-35" y="897" type="line"/>
      <point x="-35" y="958" type="line"/>
      <point x="-226" y="958" type="line"/>
    </contour>
  </outline>
</glyph>
<glyph name="maiEk-thai.narrow" format="2">
  <anchor x="-228" y="536" name="_top"/>
  <anchor x="-256" y="844" name="top"/>
  <outline>
    <contour>
      <point x="-344" y="635" type="line"/>
      <point x="-256" y="635" type="line"/>
      <point x="-256" y="846" type="line"/>
      <point x="-344" y="846" type="line"/>
    </contour>
  </outline>
</glyph>
<glyph name="maiEk-thai.small" format="2">
  <anchor x="-89" y="772" name="_top"/>
  <anchor x="-89" y="1009" name="top"/>
  <outline>
    <contour>
      <point x="-173" y="846" type="line"/>
      <point x="-88" y="846" type="line"/>
      <point x="-88" y="1009" type="line"/>
      <point x="-173" y="1009" type="line"/>
    </contour>
  </outline>
</glyph>
<glyph name="maiHanaKat-thai.narrow" format="2">
  <anchor x="-226" y="536" name="_top"/>
  <anchor x="-276" y="732" name="top"/>
  <outline>
    <contour>
      <point x="-383" y="635" type="curve" smooth="yes"/>
      <point x="-226" y="635" type="line"/>
      <point x="-226" y="703" type="line"/>
      <point x="-377" y="703" type="line" smooth="yes"/>
      <point x="-402" y="703"/>
      <point x="-412" y="718"/>
      <point x="-412" y="735" type="curve" smooth="yes"/>
      <point x="-412" y="746"/>
      <point x="-410" y="760"/>
      <point x="-407" y="766" type="curve"/>
      <point x="-482" y="779" type="line"/>
      <point x="-491" y="764"/>
      <point x="-497" y="738"/>
      <point x="-497" y="718" type="curve" smooth="yes"/>
      <point x="-497" y="675"/>
      <point x="-466" y="635"/>
    </contour>
  </outline>
</glyph>
<glyph name="maiTho-thai.narrow" format="2">
  <anchor x="-228" y="537" name="_top"/>
  <anchor x="-278" y="845" name="top"/>
  <outline>
    <contour>
      <point x="-494" y="635" type="line"/>
      <point x="-228" y="635" type="line"/>
      <point x="-228" y="705" type="line"/>
      <point x="-388" y="705" type="line"/>
      <point x="-376" y="689" type="line"/>
      <point x="-340" y="703"/>
      <point x="-328" y="731"/>
      <point x="-328" y="760" type="curve" smooth="yes"/>
      <point x="-328" y="808"/>
      <point x="-361" y="840"/>
      <point x="-413" y="840" type="curve" smooth="yes"/>
      <point x="-435" y="840"/>
      <point x="-471" y="835"/>
      <point x="-499" y="814" type="curve"/>
      <point x="-478" y="759" type="line"/>
      <point x="-468" y="763"/>
      <point x="-453" y="770"/>
      <point x="-438" y="770" type="curve" smooth="yes"/>
      <point x="-419" y="770"/>
      <point x="-409" y="758"/>
      <point x="-409" y="740" type="curve" smooth="yes"/>
      <point x="-409" y="705"/>
      <point x="-457" y="687"/>
      <point x="-494" y="679" type="curve"/>
    </contour>
  </outline>
</glyph>
<glyph name="maiTho-thai.small" format="2">
  <anchor x="-89" y="772" name="_top"/>
  <anchor x="-89" y="1009" name="top"/>
  <outline>
    <contour>
      <point x="-258" y="846" type="line"/>
      <point x="-6" y="846" type="line"/>
      <point x="-6" y="913" type="line"/>
      <point x="-158" y="913" type="line"/>
      <point x="-152" y="894" type="line"/>
      <point x="-128" y="907"/>
      <point x="-123" y="933"/>
      <point x="-123" y="950" type="curve" smooth="yes"/>
      <point x="-123" y="992"/>
      <point x="-156" y="1009"/>
      <point x="-191" y="1009" type="curve" smooth="yes"/>
      <point x="-209" y="1009"/>
      <point x="-243" y="1005"/>
      <point x="-267" y="989" type="curve"/>
      <point x="-249" y="943" type="line"/>
      <point x="-239" y="949"/>
      <point x="-227" y="953"/>
      <point x="-216" y="953" type="curve" smooth="yes"/>
      <point x="-201" y="953"/>
      <point x="-193" y="944"/>
      <point x="-193" y="930" type="curve" smooth="yes"/>
      <point x="-193" y="900"/>
      <point x="-232" y="887"/>
      <point x="-258" y="881" type="curve"/>
    </contour>
  </outline>
</glyph>
<glyph name="maiTri-thai.narrow" format="2">
  <anchor x="-228" y="536" name="_top"/>
  <anchor x="-340" y="845" name="top"/>
  <outline>
    <contour>
      <point x="-455" y="630" type="curve" smooth="yes"/>
      <point x="-435" y="630"/>
      <point x="-417" y="634"/>
      <point x="-407" y="640" type="curve"/>
      <point x="-419" y="687" type="line"/>
      <point x="-429" y="683"/>
      <point x="-441" y="682"/>
      <point x="-447" y="682" type="curve" smooth="yes"/>
      <point x="-478" y="682"/>
      <point x="-492" y="706"/>
      <point x="-492" y="731" type="curve" smooth="yes"/>
      <point x="-492" y="760"/>
      <point x="-473" y="777"/>
      <point x="-454" y="780" type="curve"/>
      <point x="-416" y="750" type="line"/>
      <point x="-410" y="750" type="line"/>
      <point x="-372" y="780" type="line"/>
      <point x="-353" y="778"/>
      <point x="-334" y="762"/>
      <point x="-334" y="730" type="curve" smooth="yes"/>
      <point x="-334" y="700"/>
      <point x="-351" y="685"/>
      <point x="-374" y="677" type="curve"/>
      <point x="-374" y="635" type="line"/>
      <point x="-207" y="635" type="line"/>
      <point x="-207" y="701" type="line"/>
      <point x="-300" y="701" type="line"/>
      <point x="-295" y="682" type="line"/>
      <point x="-277" y="698"/>
      <point x="-267" y="721"/>
      <point x="-267" y="747" type="curve" smooth="yes"/>
      <point x="-267" y="794"/>
      <point x="-297" y="831"/>
      <point x="-367" y="838" type="curve"/>
      <point x="-413" y="802" type="line"/>
      <point x="-459" y="838" type="line"/>
      <point x="-521" y="831"/>
      <point x="-557" y="796"/>
      <point x="-557" y="732" type="curve" smooth="yes"/>
      <point x="-557" y="669"/>
      <point x="-521" y="630"/>
    </contour>
  </outline>
</glyph>
<glyph name="maiTri-thai.small" format="2">
  <anchor x="-89" y="772" name="_top"/>
  <anchor x="-89" y="1009" name="top"/>
  <outline>
    <contour>
      <point x="-209" y="842" type="curve" smooth="yes"/>
      <point x="-192" y="842"/>
      <point x="-177" y="846"/>
      <point x="-168" y="851" type="curve"/>
      <point x="-176" y="894" type="line"/>
      <point x="-181" y="892"/>
      <point x="-190" y="891"/>
      <point x="-196" y="891" type="curve" smooth="yes"/>
      <point x="-219" y="891"/>
      <point x="-229" y="905"/>
      <point x="-229" y="924" type="curve" smooth="yes"/>
      <point x="-229" y="943"/>
      <point x="-218" y="956"/>
      <point x="-196" y="958" type="curve"/>
      <point x="-151" y="930" type="line"/>
      <point x="-146" y="930" type="line"/>
      <point x="-103" y="958" type="line"/>
      <point x="-83" y="955"/>
      <point x="-71" y="942"/>
      <point x="-71" y="923" type="curve" smooth="yes"/>
      <point x="-71" y="902"/>
      <point x="-87" y="888"/>
      <point x="-108" y="885" type="curve"/>
      <point x="-108" y="846" type="line"/>
      <point x="44" y="846" type="line"/>
      <point x="44" y="902" type="line"/>
      <point x="-45" y="902" type="line"/>
      <point x="-41" y="889" type="line"/>
      <point x="-24" y="895"/>
      <point x="-11" y="913"/>
      <point x="-11" y="943" type="curve" smooth="yes"/>
      <point x="-11" y="988"/>
      <point x="-57" y="1009"/>
      <point x="-102" y="1009" type="curve"/>
      <point x="-148" y="975" type="line"/>
      <point x="-199" y="1009" type="line"/>
      <point x="-259" y="1009"/>
      <point x="-290" y="971"/>
      <point x="-290" y="925" type="curve" smooth="yes"/>
      <point x="-290" y="879"/>
      <point x="-262" y="842"/>
    </contour>
  </outline>
</glyph>
<glyph name="maitaikhu-thai.narrow" format="2">
  <anchor x="-227" y="536" name="_top"/>
  <anchor x="-317" y="824" name="top"/>
  <outline>
    <contour>
      <point x="-317" y="620" type="curve" smooth="yes"/>
      <point x="-263" y="620"/>
      <point x="-227" y="652"/>
      <point x="-227" y="718" type="curve" smooth="yes"/>
      <point x="-227" y="732" type="line"/>
      <point x="-291" y="732" type="line"/>
      <point x="-291" y="720" type="line" smooth="yes"/>
      <point x="-291" y="696"/>
      <point x="-306" y="679"/>
      <point x="-329" y="679" type="curve" smooth="yes"/>
      <point x="-354" y="679"/>
      <point x="-369" y="697"/>
      <point x="-370" y="732" type="curve"/>
      <point x="-395" y="732" type="line"/>
      <point x="-435" y="682" type="line"/>
      <point x="-470" y="682"/>
      <point x="-483" y="703"/>
      <point x="-483" y="731" type="curve" smooth="yes"/>
      <point x="-483" y="769"/>
      <point x="-460" y="786"/>
      <point x="-429" y="786" type="curve" smooth="yes"/>
      <point x="-228" y="786" type="line"/>
      <point x="-228" y="846" type="line"/>
      <point x="-442" y="846" type="line" smooth="yes"/>
      <point x="-501" y="846"/>
      <point x="-553" y="810"/>
      <point x="-553" y="734" type="curve" smooth="yes"/>
      <point x="-553" y="662"/>
      <point x="-506" y="623"/>
      <point x="-429" y="623" type="curve"/>
      <point x="-395" y="666" type="line"/>
      <point x="-379" y="635"/>
      <point x="-353" y="620"/>
    </contour>
  </outline>
</glyph>
<glyph name="ru-thai.short" format="2">
  <advance width="602"/>
  <anchor x="521" y="-162" name="bottom"/>
  <anchor x="513" y="536" name="top"/>
  <outline>
    <contour>
      <point x="432" y="-174" type="line"/>
      <point x="521" y="-174" type="line"/>
      <point x="521" y="100" type="line"/>
      <point x="432" y="100" type="line"/>
    </contour>
    <component base="thoThung-thai"/>
  </outline>
</glyph>
<glyph name="ru_lakkhangyao-thai" format="2">
  <advance width="942"/>
  <outline>
    <contour>
      <point x="432" y="-201" type="line"/>
      <point x="521" y="-201" type="line"/>
      <point x="521" y="355" type="line" smooth="yes"/>
      <point x="521" y="450"/>
      <point x="578" y="484"/>
      <point x="648" y="484" type="curve" smooth="yes"/>
      <point x="717" y="484"/>
      <point x="772" y="452"/>
      <point x="772" y="359" type="curve" smooth="yes"/>
      <point x="772" y="-201" type="line"/>
      <point x="861" y="-201" type="line"/>
      <point x="861" y="369" type="line" smooth="yes"/>
      <point x="861" y="490"/>
      <point x="791" y="558"/>
      <point x="666" y="558" type="curve" smooth="yes"/>
      <point x="577" y="558"/>
      <point x="511" y="524"/>
      <point x="485" y="466" type="curve"/>
      <point x="482" y="466" type="line"/>
      <point x="451" y="524"/>
      <point x="391" y="558"/>
      <point x="294" y="558" type="curve" smooth="yes"/>
      <point x="149" y="558"/>
      <point x="66" y="481"/>
      <point x="66" y="399" type="curve" smooth="yes"/>
      <point x="66" y="366" type="line"/>
      <point x="181" y="324" type="line"/>
      <point x="180" y="321" type="line"/>
      <point x="123" y="306"/>
      <point x="84" y="275"/>
      <point x="84" y="192" type="curve" smooth="yes"/>
      <point x="84" y="95" type="line" smooth="yes"/>
      <point x="84" y="13"/>
      <point x="137" y="-10"/>
      <point x="194" y="-10" type="curve" smooth="yes"/>
      <point x="216" y="-10"/>
      <point x="240" y="-7"/>
      <point x="265" y="5" type="curve"/>
      <point x="252" y="69" type="line"/>
      <point x="241" y="65"/>
      <point x="228" y="63"/>
      <point x="214" y="63" type="curve" smooth="yes"/>
      <point x="186" y="63"/>
      <point x="173" y="75"/>
      <point x="173" y="105" type="curve" smooth="yes"/>
      <point x="173" y="193" type="line" smooth="yes"/>
      <point x="173" y="264"/>
      <point x="213" y="292"/>
      <point x="263" y="292" type="curve"/>
      <point x="271" y="340" type="line"/>
      <point x="157" y="394" type="line"/>
      <point x="157" y="446"/>
      <point x="208" y="484"/>
      <point x="291" y="484" type="curve" smooth="yes"/>
      <point x="370" y="484"/>
      <point x="432" y="449"/>
      <point x="432" y="351" type="curve" smooth="yes"/>
    </contour>
  </outline>
</glyph>
<glyph name="saraI-thai.narrow" format="2">
  <anchor x="-227" y="536" name="_top"/>
  <anchor x="-227" y="713" name="top"/>
  <outline>
    <contour>
      <point x="-574" y="635" type="line"/>
      <point x="-228" y="635" type="line"/>
      <point x="-228" y="706" type="line"/>
      <point x="-502" y="706" type="line"/>
      <point x="-574" y="674" type="line"/>
    </contour>
  </outline>
</glyph>
<glyph name="saraIi-thai.narrow" format="2">
  <anchor x="-227" y="536" name="_top"/>
  <anchor x="-227" y="772" name="top"/>
  <outline>
    <contour>
      <point x="-574" y="635" type="line"/>
      <point x="-228" y="635" type="line"/>
      <point x="-228" y="705" type="line"/>
      <point x="-502" y="705" type="line"/>
      <point x="-574" y="674" type="line"/>
    </contour>
    <contour>
      <point x="-311" y="674" type="line"/>
      <point x="-228" y="674" type="line"/>
      <point x="-228" y="784" type="line"/>
      <point x="-311" y="784" type="line"/>
    </contour>
  </outline>
</glyph>
<glyph name="saraUe-thai.narrow" format="2">
  <anchor x="-227" y="536" name="_top"/>
  <anchor x="-227" y="772" name="top"/>
  <outline>
    <contour>
      <point x="-574" y="635" type="line"/>
      <point x="-289" y="635" type="line" smooth="yes"/>
      <point x="-231" y="635"/>
      <point x="-199" y="670"/>
      <point x="-199" y="718" type="curve" smooth="yes"/>
      <point x="-199" y="768"/>
      <point x="-235" y="804"/>
      <point x="-294" y="804" type="curve" smooth="yes"/>
      <point x="-352" y="804"/>
      <point x="-388" y="770"/>
      <point x="-388" y="718" type="curve" smooth="yes"/>
      <point x="-388" y="709"/>
      <point x="-387" y="696"/>
      <point x="-380" y="681" type="curve"/>
      <point x="-367" y="705" type="line"/>
      <point x="-502" y="705" type="line"/>
      <point x="-574" y="674" type="line"/>
    </contour>
    <contour>
      <point x="-293" y="678" type="curve" smooth="yes"/>
      <point x="-323" y="678"/>
      <point x="-337" y="696"/>
      <point x="-337" y="719" type="curve" smooth="yes"/>
      <point x="-337" y="744"/>
      <point x="-322" y="760"/>
      <point x="-294" y="760" type="curve" smooth="yes"/>
      <point x="-267" y="760"/>
      <point x="-251" y="744"/>
      <point x="-251" y="719" type="curve" smooth="yes"/>
      <point x="-251" y="695"/>
      <point x="-266" y="678"/>
    </contour>
  </outline>
</glyph>
<glyph name="saraUee-thai.narrow" format="2">
  <anchor x="-226" y="536" name="_top"/>
  <anchor x="-287" y="772" name="top"/>
  <outline>
    <contour>
      <point x="-574" y="635" type="line"/>
      <point x="-226" y="635" type="line"/>
      <point x="-226" y="705" type="line"/>
      <point x="-502" y="705" type="line"/>
      <point x="-574" y="674" type="line"/>
    </contour>
    <contour>
      <point x="-432" y="689" type="line"/>
      <point x="-360" y="689" type="line"/>
      <point x="-360" y="784" type="line"/>
      <point x="-432" y="784" type="line"/>
    </contour>
    <contour>
      <point x="-299" y="689" type="line"/>
      <point x="-227" y="689" type="line"/>
      <point x="-227" y="784" type="line"/>
      <point x="-299" y="784" type="line"/>
    </contour>
  </outline>
</glyph>
<glyph name="thanthakhat-thai.narrow" format="2">
  <anchor x="-285" y="536" name="_top"/>
  <anchor x="-304" y="717" name="top"/>
  <outline>
    <contour>
      <point x="-450" y="606" type="curve"/>
      <point x="-374" y="618" type="line"/>
      <point x="-379" y="628"/>
      <point x="-382" y="639"/>
      <point x="-382" y="649" type="curve" smooth="yes"/>
      <point x="-382" y="673"/>
      <point x="-366" y="682"/>
      <point x="-338" y="682" type="curve" smooth="yes"/>
      <point x="-226" y="682" type="line"/>
      <point x="-226" y="751" type="line"/>
      <point x="-361" y="751" type="line" smooth="yes"/>
      <point x="-443" y="751"/>
      <point x="-466" y="711"/>
      <point x="-466" y="669" type="curve" smooth="yes"/>
      <point x="-466" y="646"/>
      <point x="-459" y="620"/>
    </contour>
  </outline>
</glyph>
<glyph name="thanthakhat-thai.small" format="2">
  <anchor x="-89" y="772" name="_top"/>
  <anchor x="-89" y="1010" name="top"/>
  <outline>
    <contour>
      <point x="-223" y="817" type="curve"/>
      <point x="-147" y="830" type="line"/>
      <point x="-152" y="840"/>
      <point x="-155" y="852"/>
      <point x="-155" y="862" type="curve" smooth="yes"/>
      <point x="-155" y="886"/>
      <point x="-139" y="895"/>
      <point x="-110" y="895" type="curve" smooth="yes"/>
      <point x="-7" y="895" type="line"/>
      <point x="-7" y="963" type="line"/>
      <point x="-132" y="963" type="line" smooth="yes"/>
      <point x="-217" y="963"/>
      <point x="-239" y="923"/>
      <point x="-239" y="880" type="curve" smooth="yes"/>
      <point x="-239" y="858"/>
      <point x="-233" y="832"/>
    </contour>
  </outline>
</glyph>
<glyph name="thoThan-thai.less" format="2">
  <advance width="547"/>
  <anchor x="427" y="0" name="bottom"/>
  <anchor x="479" y="536" name="top"/>
  <outline>
    <contour>
      <point x="143" y="0" type="line"/>
      <point x="227" y="0" type="line" smooth="yes"/>
      <point x="403" y="0"/>
      <point x="467" y="100"/>
      <point x="467" y="275" type="curve" smooth="yes"/>
      <point x="467" y="375"/>
      <point x="446" y="450"/>
      <point x="389" y="492" type="curve"/>
      <point x="358" y="537"/>
      <point x="300" y="558"/>
      <point x="219" y="558" type="curve" smooth="yes"/>
      <point x="143" y="558"/>
      <point x="74" y="540"/>
      <point x="34" y="516" type="curve"/>
      <point x="34" y="433" type="line"/>
      <point x="87" y="468"/>
      <point x="145" y="484"/>
      <point x="208" y="484" type="curve" smooth="yes"/>
      <point x="331" y="484"/>
      <point x="376" y="424"/>
      <point x="376" y="276" type="curve" smooth="yes"/>
      <point x="376" y="128"/>
      <point x="331" y="72"/>
      <point x="241" y="72" type="curve" smooth="yes"/>
      <point x="228" y="72" type="line"/>
      <point x="228" y="314" type="line"/>
      <point x="67" y="314" type="line"/>
      <point x="67" y="244" type="line"/>
      <point x="143" y="244" type="line"/>
    </contour>
    <contour>
      <point x="401" y="471" type="line"/>
      <point x="461" y="482"/>
      <point x="510" y="521"/>
      <point x="510" y="584" type="curve"/>
      <point x="423" y="584" type="line"/>
      <point x="423" y="544"/>
      <point x="385" y="523"/>
      <point x="351" y="518" type="curve"/>
    </contour>
  </outline>
</glyph>
<glyph name="toPatak-thai.short" format="2">
  <advance width="603"/>
  <anchor x="522" y="-162" name="bottom"/>
  <anchor x="510" y="536" name="top"/>
  <outline>
    <contour>
      <point x="76" y="-176" type="line"/>
      <point x="160" y="-176" type="line"/>
      <point x="160" y="-166" type="line" smooth="yes"/>
      <point x="160" y="-141"/>
      <point x="173" y="-111"/>
      <point x="209" y="-111" type="curve" smooth="yes"/>
      <point x="245" y="-111"/>
      <point x="267" y="-140"/>
      <point x="284" y="-176" type="curve"/>
      <point x="307" y="-176" type="line"/>
      <point x="368" y="-119" type="line"/>
      <point x="442" y="-176" type="line"/>
      <point x="522" y="-176" type="line"/>
      <point x="522" y="369" type="line" smooth="yes"/>
      <point x="522" y="502"/>
      <point x="416" y="558"/>
      <point x="293" y="558" type="curve" smooth="yes"/>
      <point x="150" y="558"/>
      <point x="67" y="481"/>
      <point x="67" y="399" type="curve" smooth="yes"/>
      <point x="67" y="366" type="line"/>
      <point x="182" y="324" type="line"/>
      <point x="181" y="321" type="line"/>
      <point x="124" y="307"/>
      <point x="92" y="276"/>
      <point x="92" y="194" type="curve" smooth="yes"/>
      <point x="92" y="101" type="line" smooth="yes"/>
      <point x="92" y="74"/>
      <point x="83" y="62"/>
      <point x="62" y="62" type="curve" smooth="yes"/>
      <point x="51" y="62"/>
      <point x="38" y="65"/>
      <point x="29" y="68" type="curve"/>
      <point x="19" y="5" type="line"/>
      <point x="42" y="-5"/>
      <point x="64" y="-9"/>
      <point x="88" y="-9" type="curve" smooth="yes"/>
      <point x="140" y="-9"/>
      <point x="181" y="13"/>
      <point x="181" y="94" type="curve" smooth="yes"/>
      <point x="181" y="191" type="line" smooth="yes"/>
      <point x="181" y="262"/>
      <point x="214" y="292"/>
      <point x="264" y="292" type="curve"/>
      <point x="272" y="340" type="line"/>
      <point x="158" y="394" type="line"/>
      <point x="158" y="446"/>
      <point x="209" y="484"/>
      <point x="292" y="484" type="curve" smooth="yes"/>
      <point x="370" y="484"/>
      <point x="433" y="449"/>
      <point x="433" y="360" type="curve" smooth="yes"/>
      <point x="433" y="-120" type="line"/>
      <point x="459" y="-115" type="line"/>
      <point x="366" y="-47" type="line"/>
      <point x="302" y="-101" type="line"/>
      <point x="285" y="-68"/>
      <point x="254" y="-42"/>
      <point x="193" y="-42" type="curve" smooth="yes"/>
      <point x="130" y="-42"/>
      <point x="76" y="-80"/>
      <point x="76" y="-151" type="curve" smooth="yes"/>
    </contour>
  </outline>
</glyph>
<glyph name="yoYing-thai.less" format="2">
  <advance width="891"/>
  <anchor x="792" y="0" name="bottom"/>
  <anchor x="810" y="536" name="top"/>
  <outline>
    <contour>
      <point x="607" y="-10" type="curve" smooth="yes"/>
      <point x="747" y="-10"/>
      <point x="810" y="54"/>
      <point x="810" y="190" type="curve" smooth="yes"/>
      <point x="810" y="548" type="line"/>
      <point x="721" y="548" type="line"/>
      <point x="721" y="189" type="line" smooth="yes"/>
      <point x="721" y="99"/>
      <point x="679" y="64"/>
      <point x="607" y="64" type="curve" smooth="yes"/>
      <point x="534" y="64"/>
      <point x="492" y="99"/>
      <point x="492" y="189" type="curve" smooth="yes"/>
      <point x="492" y="370" type="line" smooth="yes"/>
      <point x="492" y="509"/>
      <point x="388" y="558"/>
      <point x="279" y="558" type="curve" smooth="yes"/>
      <point x="148" y="558"/>
      <point x="66" y="487"/>
      <point x="66" y="399" type="curve" smooth="yes"/>
      <point x="66" y="366" type="line"/>
      <point x="181" y="324" type="line"/>
      <point x="180" y="321" type="line"/>
      <point x="123" y="306"/>
      <point x="84" y="275"/>
      <point x="84" y="192" type="curve" smooth="yes"/>
      <point x="84" y="95" type="line" smooth="yes"/>
      <point x="84" y="13"/>
      <point x="137" y="-10"/>
      <point x="194" y="-10" type="curve" smooth="yes"/>
      <point x="216" y="-10"/>
      <point x="240" y="-7"/>
      <point x="265" y="5" type="curve"/>
      <point x="252" y="69" type="line"/>
      <point x="241" y="65"/>
      <point x="228" y="63"/>
      <point x="215" y="63" type="curve" smooth="yes"/>
      <point x="186" y="63"/>
      <point x="173" y="75"/>
      <point x="173" y="105" type="curve" smooth="yes"/>
      <point x="173" y="193" type="line" smooth="yes"/>
      <point x="173" y="264"/>
      <point x="213" y="292"/>
      <point x="263" y="292" type="curve"/>
      <point x="271" y="340" type="line"/>
      <point x="157" y="394" type="line"/>
      <point x="158" y="453"/>
      <point x="207" y="484"/>
      <point x="278" y="484" type="curve" smooth="yes"/>
      <point x="344" y="484"/>
      <point x="404" y="457"/>
      <point x="404" y="361" type="curve" smooth="yes"/>
      <point x="404" y="190" type="line" smooth="yes"/>
      <point x="404" y="54"/>
      <point x="467" y="-10"/>
    </contour>
  </outline>
</glyph>
